<svg width="612" height="407" viewBox="0 0 612 407" fill="none" xmlns="http://www.w3.org/2000/svg">
<path fill-rule="evenodd" clip-rule="evenodd" d="M514.397 85.9339C506.923 85.7033 499.537 85.7033 492.238 85.9339C489.75 90.8911 488.518 96.1631 488.545 101.75C486.598 99.7992 484.488 99.4478 482.214 100.696C482.046 104.261 482.574 107.776 483.797 111.24C483.429 113.715 482.022 115.122 479.576 115.457C475.322 104.813 474.795 93.9178 477.993 82.7707C482.375 75.0883 489.059 71.5736 498.041 72.2266C507.254 72.4801 512.706 77.0492 514.397 85.9339Z" fill="#231524"/>
<path fill-rule="evenodd" clip-rule="evenodd" d="M322.355 99.6412C321.304 99.5507 320.425 99.9022 319.717 100.696C319.479 96.1342 318.6 91.7408 317.079 87.5155C310.131 88.6506 303.272 88.1234 296.503 85.9339C293.95 86.9758 291.488 86.6243 289.117 84.8795C288.303 85.0322 287.599 85.3836 287.007 85.9339C285.487 90.9071 283.905 95.8276 282.259 100.696C281.538 100.313 280.834 99.9616 280.148 99.6412C276.64 82.7862 283.323 73.2965 300.197 71.1722C309.6 72.0048 317.69 75.6952 324.465 82.2435C323.938 82.7707 323.41 83.2979 322.883 83.8251C322.356 89.0854 322.18 94.3574 322.355 99.6412Z" fill="#79484A"/>
<path fill-rule="evenodd" clip-rule="evenodd" d="M420.486 98.5868C419.073 95.2322 416.612 92.5962 413.1 90.6788C411.153 89.4894 409.043 88.9622 406.769 89.0972C407.014 93.8907 406.135 98.4598 404.131 102.804C401.273 105.839 398.283 108.65 395.162 111.24C389.614 107.563 387.327 108.97 388.303 115.457C390.062 117.917 391.82 120.378 393.579 122.838C394.283 128.11 394.283 133.382 393.579 138.654C393.073 140.376 392.194 141.782 390.941 142.872C386.119 143.864 381.195 144.215 376.169 143.926C377.034 142.197 377.913 140.439 378.807 138.654C379.158 125.298 379.511 111.943 379.862 98.5868C384.162 83.1634 394.186 77.7156 409.934 82.2436C417.301 85.1865 420.818 90.6343 420.486 98.5868Z" fill="#221424"/>
<path fill-rule="evenodd" clip-rule="evenodd" d="M82.831 83.8252C82.6928 84.6043 82.8687 85.3073 83.3586 85.934C88.8166 84.4971 94.2684 84.6728 99.7138 86.4612C102.13 88.3351 103.889 90.6196 104.99 93.3148C96.9737 95.3886 88.5324 96.0916 79.6655 95.4236C79.9213 91.2282 80.9765 87.3621 82.831 83.8252Z" fill="#2E2F4D"/>
<path fill-rule="evenodd" clip-rule="evenodd" d="M322.355 99.6413C322.533 105.466 321.127 110.738 318.134 115.457C317.483 115.574 316.956 115.926 316.552 116.512C315.74 113.771 315.916 111.135 317.079 108.604C306.534 108.077 295.982 107.901 285.424 108.077C285.87 110.482 285.167 112.239 283.314 113.349C280.807 109.244 279.751 104.674 280.148 99.6413C280.834 99.9617 281.538 100.313 282.259 100.696C283.905 95.8277 285.487 90.9072 287.007 85.934C287.599 85.3837 288.303 85.0323 289.117 84.8796C291.488 86.6245 293.95 86.9759 296.503 85.934C303.272 88.1235 310.131 88.6507 317.079 87.5156C318.6 91.741 319.479 96.1343 319.717 100.696C320.425 99.9024 321.304 99.5508 322.355 99.6413Z" fill="#E0AB99"/>
<path fill-rule="evenodd" clip-rule="evenodd" d="M104.99 93.3147C106.481 96.1812 107.184 99.3444 107.1 102.804C105.408 103.003 104.001 102.476 102.879 101.223C94.5749 100.788 86.4852 100.612 78.6104 100.696C79.4552 99.0698 79.8069 97.3125 79.6655 95.4235C88.5323 96.0915 96.9737 95.3885 104.99 93.3147Z" fill="#DCAD9F"/>
<path fill-rule="evenodd" clip-rule="evenodd" d="M215.783 124.947C215.783 127.056 215.783 129.165 215.783 131.273C217.474 133.79 218.529 136.602 218.948 139.709C212.635 145.667 206.656 151.994 201.01 158.688C199.661 152.758 198.606 146.783 197.845 140.763C197.845 138.654 197.845 136.545 197.845 134.437C200.189 134.776 202.125 134.073 203.648 132.328C203.589 126.339 203.062 120.365 202.066 114.403C194.938 114.712 187.903 114.361 180.962 113.349C180.703 106.96 181.054 100.633 182.017 94.3693C185.637 92.9032 189.154 93.079 192.569 94.8965C194.948 99.2059 198.465 102.193 203.121 103.859C203.825 105.968 204.527 108.077 205.231 110.185C208.439 107.043 210.902 107.394 212.617 111.24C212.296 113.286 211.418 115.043 209.979 116.512C209.061 121.369 210.995 124.182 215.783 124.947Z" fill="#DEA997"/>
<path opacity="0.933" fill-rule="evenodd" clip-rule="evenodd" d="M78.6103 100.696C86.4852 100.612 94.5749 100.788 102.879 101.223C104.001 102.476 105.408 103.003 107.1 102.804C107.1 103.859 107.1 104.913 107.1 105.968C106.049 105.877 105.17 106.229 104.462 107.022C104.24 108.665 103.713 110.07 102.879 111.24C100.991 112.818 98.7047 113.521 96.0207 113.349C92.8752 113.79 90.4131 112.736 88.6345 110.185C88.1069 111.416 87.2276 112.294 85.9965 112.821C83.7959 113.153 81.6855 113.681 79.6655 114.403C78.7447 109.903 78.3931 105.333 78.6103 100.696Z" fill="#83686A"/>
<path fill-rule="evenodd" clip-rule="evenodd" d="M102.879 111.24C98.9945 111.414 95.1255 111.239 91.2724 110.712C90.42 108.914 89.0131 108.035 87.0517 108.076C87.0517 109.131 87.0517 110.185 87.0517 111.24C84.9414 111.24 82.831 111.24 80.7207 111.24C80.7207 108.428 80.7207 105.617 80.7207 102.804C88.1069 102.804 95.4931 102.804 102.879 102.804C102.879 105.617 102.879 108.428 102.879 111.24Z" fill="#DFAE9E"/>
<path fill-rule="evenodd" clip-rule="evenodd" d="M235.831 143.926C231.11 142.004 226.187 140.949 221.059 140.763C220.698 139.879 219.995 139.527 218.948 139.708C218.529 136.602 217.474 133.79 215.783 131.273C219.327 123.621 221.262 115.538 221.586 107.022C220.353 113.353 218.419 119.327 215.783 124.947C210.995 124.181 209.061 121.369 209.979 116.512C211.417 115.043 212.296 113.286 212.617 111.24C210.902 107.394 208.439 107.043 205.231 110.185C204.527 108.076 203.824 105.967 203.121 103.859C198.465 102.193 194.948 99.2057 192.569 94.8962C189.154 93.0788 185.636 92.903 182.017 94.369C185.71 86.0981 192.218 82.2319 201.538 82.7706C209.761 82.576 215.916 86.0907 220.003 93.3146C229.612 90.2987 235.064 93.8134 236.359 103.859C236.464 117.211 236.289 130.566 235.831 143.926Z" fill="#7A494A"/>
<path opacity="0.996" fill-rule="evenodd" clip-rule="evenodd" d="M318.134 115.457C316.859 118.853 315.1 122.017 312.859 124.947C313.242 125.667 313.593 126.37 313.914 127.056C313.21 127.056 312.507 127.056 311.803 127.056C302.938 133.532 295.2 132.477 288.59 123.892C285.941 120.875 284.182 117.359 283.314 113.348C285.167 112.239 285.87 110.481 285.424 108.076C295.982 107.901 306.534 108.076 317.079 108.604C315.916 111.135 315.74 113.771 316.552 116.512C316.956 115.925 317.483 115.574 318.134 115.457Z" fill="#F9F7F7"/>
<path fill-rule="evenodd" clip-rule="evenodd" d="M107.1 105.968C107.726 113.355 106.494 120.384 103.407 127.056C99.7483 128.73 96.0552 130.488 92.3276 132.328C91.6146 133.49 90.9112 134.544 90.2173 135.491C83.9811 130.058 80.4638 123.029 79.6655 114.403C81.6855 113.681 83.7959 113.153 85.9966 112.821C87.2276 112.294 88.1069 111.416 88.6345 110.185C90.4131 112.736 92.8752 113.79 96.0207 113.348C98.7047 113.521 100.991 112.818 102.879 111.24C103.713 110.07 104.24 108.665 104.462 107.022C105.17 106.229 106.049 105.877 107.1 105.968Z" fill="#E2E2E3"/>
<path fill-rule="evenodd" clip-rule="evenodd" d="M422.597 114.403C423.54 119.275 423.365 124.195 422.069 129.164C420.2 133.529 416.859 135.637 412.045 135.491C409.273 134.853 406.46 134.326 403.603 133.909C402.624 133.5 401.92 132.797 401.493 131.801C400.356 126.371 400.356 120.923 401.493 115.457C408.542 115.339 415.577 114.987 422.597 114.403Z" fill="#E5E2E2"/>
<path fill-rule="evenodd" clip-rule="evenodd" d="M420.486 98.5867C421.963 103.714 422.666 108.985 422.597 114.403C415.577 114.987 408.542 115.339 401.493 115.457C400.356 120.923 400.356 126.371 401.493 131.8C401.92 132.797 402.624 133.5 403.603 133.909C406.46 134.326 409.273 134.853 412.045 135.491C411.055 137.87 411.055 140.331 412.045 142.872C412.045 143.575 412.045 144.277 412.045 144.98C411.678 152.949 410.622 160.681 408.879 168.177C406.873 163.114 404.059 158.544 400.438 154.47C399.057 151.014 397.123 147.851 394.635 144.98C393.773 143.585 392.542 142.883 390.941 142.872C392.194 141.781 393.073 140.376 393.579 138.654C394.283 133.382 394.283 128.11 393.579 122.838C391.82 120.378 390.062 117.917 388.303 115.457C387.327 108.969 389.614 107.563 395.162 111.24C398.283 108.65 401.273 105.839 404.131 102.804C406.135 98.4596 407.014 93.8906 406.769 89.097C409.043 88.9621 411.153 89.4893 413.1 90.6787C416.612 92.5961 419.073 95.2321 420.486 98.5867Z" fill="#784B4D"/>
<path fill-rule="evenodd" clip-rule="evenodd" d="M515.452 107.022C515.077 112.977 513.494 118.601 510.703 123.893C508.258 126.607 505.268 128.364 501.734 129.165C501.031 129.165 500.328 129.165 499.624 129.165C496.436 127.618 493.271 125.861 490.128 123.893C489.776 121.784 489.424 119.675 489.072 117.566C489.154 113.209 489.857 108.992 491.183 104.913C499.199 106.372 507.289 107.075 515.452 107.022Z" fill="#E3E0E0"/>
<path fill-rule="evenodd" clip-rule="evenodd" d="M130.314 131.273C129.343 134.402 127.76 137.213 125.566 139.709C124.841 141.889 125.017 143.998 126.093 146.035C124.561 147.553 123.506 149.31 122.928 151.307C117.932 156.621 115.998 162.948 117.124 170.286C122.819 173.502 126.16 171.746 127.148 165.014C129.504 161.967 130.911 158.453 131.369 154.47C133.707 155.211 135.641 156.617 137.172 158.688C139.571 172.961 141.681 187.372 143.503 201.918C145.456 206.712 147.215 211.633 148.779 216.68C151.849 219.731 155.542 220.61 159.859 219.316C165.466 216.042 169.687 211.648 172.521 206.136C174.311 215.356 173.609 224.493 170.41 233.55C165.868 238.444 161.295 243.364 156.693 248.312C154.27 248.633 153.919 249.687 155.638 251.475C154.24 253.007 153.361 252.655 153 250.421C150.645 251.837 148.71 253.595 147.197 255.693C143.269 250.749 138.697 246.531 133.479 243.04C133.562 238.294 135.321 234.428 138.755 231.442C139.535 231.58 140.239 231.404 140.866 230.914C137.491 226.669 133.973 222.628 130.314 218.789C129.978 216.345 128.571 214.938 126.093 214.571C122.597 216.326 119.432 218.61 116.597 221.425C111.264 221.816 106.868 224.1 103.407 228.278C103.055 229.684 102.703 231.091 102.352 232.496C99.5379 234.605 96.7242 236.714 93.9104 238.822C93.3896 240.545 93.2137 242.303 93.3828 244.095C92.6214 244.535 92.0938 245.237 91.8 246.203C91.7453 221.251 92.0969 196.296 92.8552 171.341C94.1538 163.501 95.7365 155.769 97.6035 148.144C98.6586 148.144 99.7138 148.144 100.769 148.144C100.864 145.828 101.216 143.543 101.824 141.29C101.719 137.144 99.609 134.859 95.4931 134.436C91.2079 136.683 86.6355 138.089 81.7759 138.654C84.3463 137.209 87.1601 136.154 90.2173 135.491C90.9112 134.544 91.6146 133.49 92.3276 132.328C96.0552 130.488 99.7483 128.73 103.407 127.056C106.494 120.384 107.726 113.355 107.1 105.968C107.1 104.913 107.1 103.859 107.1 102.804C107.184 99.3444 106.481 96.1812 104.99 93.3147C103.889 90.6195 102.13 88.335 99.7138 86.4611C94.2684 84.6727 88.8166 84.4969 83.3586 85.9339C82.8687 85.3072 82.6928 84.6042 82.8311 83.8251C87.4914 75.6989 94.5259 72.3599 103.935 73.8082C116.158 75.8319 123.016 83.037 124.51 95.4235C126.175 105.627 124.593 115.293 119.762 124.42C122.348 128.005 125.865 130.29 130.314 131.273Z" fill="#C6EEFA"/>
<path fill-rule="evenodd" clip-rule="evenodd" d="M514.397 85.9339C515.41 92.8697 515.761 99.8991 515.452 107.022C507.289 107.075 499.199 106.371 491.183 104.913C489.858 108.992 489.154 113.209 489.072 117.566C489.424 119.675 489.776 121.784 490.128 123.892C493.271 125.861 496.437 127.618 499.624 129.165C501.087 135.896 500.735 142.573 498.569 149.198C496.16 149.084 494.05 148.206 492.238 146.562C486.337 140.498 481.062 133.996 476.41 127.056C479.107 123.715 480.163 119.85 479.576 115.457C482.022 115.122 483.429 113.715 483.797 111.24C482.574 107.776 482.046 104.261 482.214 100.696C484.488 99.4478 486.598 99.7992 488.545 101.75C488.519 96.1631 489.75 90.8911 492.238 85.9339C499.537 85.7033 506.923 85.7033 514.397 85.9339Z" fill="#774C4C"/>
<path opacity="0.955" fill-rule="evenodd" clip-rule="evenodd" d="M180.962 113.348C187.903 114.361 194.938 114.712 202.065 114.403C203.062 120.364 203.589 126.339 203.648 132.328C202.125 134.073 200.189 134.776 197.845 134.436C197.845 136.545 197.845 138.654 197.845 140.763C196.57 139.989 195.164 139.638 193.624 139.708C192.068 137.695 189.957 136.465 187.293 136.018C181.833 129.489 179.722 121.933 180.962 113.348Z" fill="#E6E2E1"/>
<path fill-rule="evenodd" clip-rule="evenodd" d="M140.865 127.056C142.658 126.887 144.417 127.062 146.141 127.583C147.486 128.613 147.486 129.492 146.141 130.219C141.49 129.757 139.731 131.866 140.865 136.545C138.487 135.887 136.728 134.482 135.59 132.328C136.968 130.247 138.727 128.491 140.865 127.056Z" fill="#E8E8EE"/>
<path opacity="0.439" fill-rule="evenodd" clip-rule="evenodd" d="M288.59 127.056C288.707 127.706 289.058 128.233 289.645 128.637C288.678 128.93 287.975 129.458 287.534 130.219C286.128 130.922 284.72 131.624 283.314 132.328C283.314 131.624 283.314 130.922 283.314 130.219C284.537 128.374 286.296 127.319 288.59 127.056Z" fill="#645D63"/>
<path opacity="0.675" fill-rule="evenodd" clip-rule="evenodd" d="M311.803 127.056C312.507 127.056 313.21 127.056 313.914 127.056C316.675 128.412 319.137 130.169 321.3 132.328C321.3 133.382 321.3 134.436 321.3 135.491C318.873 132.872 316.059 130.763 312.859 129.164C312.507 128.461 312.155 127.759 311.803 127.056Z" fill="#554D54"/>
<path fill-rule="evenodd" clip-rule="evenodd" d="M146.141 130.219C146.916 131.493 147.267 132.898 147.197 134.437C145.706 135.95 143.947 137.004 141.921 137.6C141.217 137.6 140.866 137.249 140.866 136.545C139.731 131.866 141.49 129.757 146.141 130.219Z" fill="#3E4160"/>
<path opacity="0.125" fill-rule="evenodd" clip-rule="evenodd" d="M144.031 122.838C144.122 123.888 143.769 124.767 142.976 125.474C144.7 125.995 146.459 126.17 148.252 126.001C148.449 128.178 148.977 130.286 149.834 132.328C150.726 130.102 151.605 127.993 152.472 126.001C153.366 129.698 152.662 133.212 150.362 136.545C149.528 135.595 148.473 134.892 147.197 134.437C147.267 132.898 146.916 131.493 146.141 130.219C147.486 129.492 147.486 128.613 146.141 127.583C144.417 127.062 142.658 126.887 140.865 127.056C141.117 125.048 142.172 123.642 144.031 122.838Z" fill="#AEA7C1"/>
<path fill-rule="evenodd" clip-rule="evenodd" d="M288.59 123.893C295.2 132.478 302.938 133.532 311.803 127.056C312.155 127.759 312.507 128.461 312.859 129.165C312.507 130.57 312.155 131.977 311.803 133.382C311.1 134.086 310.397 134.788 309.693 135.491C305.639 137.075 301.418 137.777 297.031 137.6C293.497 136.894 290.683 135.137 288.59 132.328C288.771 131.282 288.419 130.58 287.534 130.219C287.975 129.458 288.678 128.931 289.645 128.637C289.058 128.234 288.707 127.706 288.59 127.056C288.59 126.001 288.59 124.947 288.59 123.893Z" fill="#D9A996"/>
<path fill-rule="evenodd" clip-rule="evenodd" d="M476.41 127.056C481.061 133.996 486.337 140.498 492.238 146.562C494.05 148.206 496.16 149.084 498.569 149.198C500.735 142.573 501.087 135.896 499.624 129.164C500.328 129.164 501.031 129.164 501.734 129.164C501.503 130.403 501.855 131.458 502.79 132.328C510.156 134.337 516.663 137.852 522.31 142.872C529.681 158.99 536.012 175.509 541.303 192.429C541.936 195.165 541.409 197.626 539.721 199.81C533.769 202.08 528.142 204.892 522.838 208.245C521.679 212.531 520.097 216.749 518.09 220.898C518.077 215.432 517.198 210.16 515.452 205.082C513.335 203.234 510.873 202.18 508.065 201.918C506.131 202.008 504.725 202.711 503.845 204.027C498.836 211.666 496.374 220.102 496.459 229.333C492.791 230.538 488.923 230.714 484.852 229.86C479.549 226.513 473.922 223.877 467.969 221.952C466.354 220.006 464.244 218.951 461.638 218.789C459.441 216.279 456.627 214.523 453.196 213.517C453.251 210.983 452.9 208.523 452.141 206.136C454.087 204.26 454.79 201.8 454.252 198.755C453.196 198.755 452.141 198.755 451.086 198.755C448.123 183.027 442.847 168.265 435.259 154.47C435.642 153.75 435.993 153.047 436.314 152.361C438.495 140.168 445.53 132.612 457.417 129.692C463.752 128.762 470.083 127.883 476.41 127.056Z" fill="#89DCBF"/>
<path fill-rule="evenodd" clip-rule="evenodd" d="M311.803 133.382C313.198 133.203 314.43 133.554 315.497 134.437C316.023 140.753 316.199 147.08 316.024 153.416C314.265 154.47 312.859 155.876 311.803 157.633C309.342 157.633 306.879 157.633 304.417 157.633C304.417 156.93 304.417 156.228 304.417 155.525C304.143 151.467 304.846 147.601 306.528 143.926C305.835 141.867 305.484 139.758 305.472 137.6C307.456 137.885 308.863 137.182 309.693 135.491C310.397 134.788 311.1 134.085 311.803 133.382Z" fill="#FAF8CC"/>
<path fill-rule="evenodd" clip-rule="evenodd" d="M312.859 129.165C316.059 130.763 318.873 132.872 321.3 135.491C323.043 140.595 323.746 145.867 323.41 151.307C320.762 150.837 318.652 151.539 317.079 153.416C316.728 153.416 316.376 153.416 316.024 153.416C316.199 147.08 316.023 140.754 315.497 134.437C314.43 133.554 313.198 133.203 311.803 133.382C312.155 131.977 312.507 130.57 312.859 129.165Z" fill="#E5E3E2"/>
<path opacity="0.702" fill-rule="evenodd" clip-rule="evenodd" d="M151.417 141.817C149.545 142.735 148.139 144.14 147.196 146.035C146.009 145.141 146.009 144.087 147.196 142.872C148.788 141.099 149.843 138.991 150.362 136.545C152.662 133.212 153.366 129.698 152.472 126.001C150.564 121.503 147.749 120.449 144.031 122.838C142.172 123.642 141.117 125.048 140.865 127.056C138.727 128.491 136.968 130.247 135.59 132.328C134.886 132.328 134.534 131.977 134.534 131.273C138.109 125.415 142.858 120.845 148.779 117.566C152.81 118.783 155.448 121.419 156.693 125.474C155.243 131.05 153.484 136.498 151.417 141.817ZM152.472 126.001C151.605 127.993 150.726 130.102 149.834 132.328C148.977 130.286 148.449 128.178 148.252 126.001C146.459 126.17 144.7 125.995 142.976 125.474C143.769 124.767 144.122 123.888 144.031 122.838C147.749 120.449 150.564 121.503 152.472 126.001Z" fill="#5B5B70"/>
<path fill-rule="evenodd" clip-rule="evenodd" d="M147.197 134.437C148.473 134.892 149.528 135.595 150.362 136.545C149.843 138.99 148.788 141.099 147.197 142.872C145.197 141.319 143.439 139.561 141.921 137.6C143.947 137.004 145.706 135.95 147.197 134.437Z" fill="#CFE6E8"/>
<path opacity="0.999" fill-rule="evenodd" clip-rule="evenodd" d="M321.3 132.328C330.746 133.831 339.891 136.467 348.735 140.236C350.317 141.817 351.9 143.399 353.483 144.98C355.265 149.261 357.552 153.128 360.341 156.579C360.127 158.207 359.423 159.614 358.231 160.797C359.648 168.919 361.406 177.003 363.507 185.048C364.384 193.109 364.911 201.193 365.09 209.299C365.868 212.98 366.747 216.495 367.728 219.843C365.847 229.175 363.209 238.312 359.814 247.258C355.51 256.553 351.817 266.043 348.735 275.727C351.477 302.035 353.06 328.395 353.483 354.807C352.775 355.6 351.896 355.952 350.845 355.861C345.218 355.861 339.589 355.861 333.962 355.861C330.778 355.646 327.612 355.295 324.466 354.807C324.053 332.633 322.998 310.49 321.3 288.379C321.125 283.797 321.301 279.228 321.828 274.672C322.98 276.392 323.859 278.15 324.466 279.944C325.705 279.713 326.761 280.064 327.631 280.999C331.169 286.669 336.093 290.185 342.404 291.543C342.542 288.52 341.134 286.763 338.183 286.271C339.67 284.367 340.197 282.259 339.766 279.944C336.602 278.011 333.964 275.552 331.852 272.563C330.366 271.076 329.311 269.319 328.686 267.291C333.439 250.765 338.362 234.245 343.459 217.734C340.784 201.337 339.201 184.818 338.71 168.177C338.072 179.142 336.841 189.862 335.017 200.337C335.984 200.731 336.864 201.258 337.655 201.918C338.192 207.597 339.071 213.22 340.293 218.789C335.865 230.923 332.172 243.225 329.214 255.693C328.425 257.625 327.369 259.382 326.048 260.965C325.155 264.221 325.682 267.208 327.631 269.927C327.104 270.455 326.576 270.982 326.048 271.509C324.941 269.815 323.359 269.112 321.3 269.4C321.586 271.382 320.882 272.788 319.19 273.618C319.19 270.806 319.19 267.995 319.19 265.183C318.135 265.183 317.079 265.183 316.024 265.183C316.16 263.373 316.512 261.616 317.079 259.911C319.424 260.25 321.359 259.547 322.883 257.802C323.754 254.33 324.282 250.815 324.466 247.258C325.419 246.51 325.771 245.456 325.521 244.094C326.927 244.094 328.335 244.094 329.741 244.094C332.473 236.038 332.473 227.954 329.741 219.843C330.82 213.892 331.347 207.917 331.324 201.918C329.409 201.134 327.475 200.431 325.521 199.81C323.762 199.81 322.004 199.81 320.245 199.81C320.528 198.124 320.175 196.718 319.19 195.592C318.442 194.639 317.386 194.288 316.024 194.537C315.734 181.142 316.085 167.787 317.079 154.47C317.079 154.119 317.079 153.767 317.079 153.416C326.097 151.341 330.67 155.031 330.797 164.487C329.878 172.508 326.712 179.538 321.3 185.575C319.936 186.092 318.528 186.268 317.079 186.102C317.079 187.157 317.079 188.211 317.079 189.265C320.676 189.02 323.314 187.262 324.993 183.993C331.221 176.214 333.331 167.428 331.324 157.633C330.298 155.377 328.715 153.619 326.576 152.361C325.706 148.898 325.179 145.383 324.993 141.817C324.546 139.155 323.315 137.046 321.3 135.491C321.3 134.436 321.3 133.382 321.3 132.328Z" fill="#E4E3E4"/>
<path fill-rule="evenodd" clip-rule="evenodd" d="M283.314 130.219C283.314 130.922 283.314 131.625 283.314 132.328C279.706 135.873 278.3 140.266 279.093 145.508C279.893 158.912 282.003 172.093 285.424 185.048C284.72 185.399 284.018 185.751 283.314 186.102C281.89 184.735 280.484 184.911 279.093 186.63C276.301 187.154 273.487 187.33 270.652 187.157C270.652 188.915 270.652 190.671 270.652 192.429C274.923 192.318 279.144 192.669 283.314 193.483C283.314 192.429 283.314 191.374 283.314 190.32C284.514 191.679 285.92 192.734 287.535 193.483C289.293 194.187 291.051 194.889 292.81 195.592C290.449 203.502 289.218 211.585 289.117 219.843C289.469 219.492 289.821 219.14 290.172 218.789C290.374 216.461 290.902 214.352 291.755 212.463C291.755 213.517 291.755 214.571 291.755 215.626C291.479 217.184 291.83 218.59 292.81 219.843C297.975 221.296 303.251 222.175 308.638 222.479C310.192 223.228 310.896 224.457 310.748 226.17C310.783 230.776 310.432 235.345 309.693 239.877C308.446 242.342 306.688 244.451 304.417 246.203C298.504 245.198 292.524 244.845 286.479 245.149C286.266 247.732 286.618 250.192 287.535 252.53C285.867 250.192 284.812 247.38 284.369 244.095C283.06 247.297 283.06 250.46 284.369 253.584C282.686 251.886 281.456 249.777 280.676 247.258C280.325 247.961 279.972 248.663 279.621 249.367C274.577 246.908 269.125 245.853 263.266 246.203C263.091 257.143 262.036 267.687 260.1 277.836C261.003 265.91 261.356 253.961 261.155 241.986C258.191 241.504 255.377 241.504 252.714 241.986C252.253 240.326 251.198 239.096 249.548 238.295C244.255 237.885 239.682 235.951 235.831 232.496C235.636 230.708 234.756 229.302 233.193 228.279C232.489 219.843 232.489 211.408 233.193 202.973C234.19 200.04 234.366 197.227 233.721 194.538C235.193 193.996 236.248 192.414 236.886 189.793C236.535 189.442 236.182 189.09 235.831 188.738C240.304 175.289 244.876 161.758 249.548 148.144C251.032 145.071 253.142 142.435 255.879 140.236C263.875 137.512 271.965 135.051 280.148 132.855C281.069 131.753 282.125 130.875 283.314 130.219Z" fill="#E3E3E2"/>
<path fill-rule="evenodd" clip-rule="evenodd" d="M303.362 152.361C302.477 151.158 301.773 149.753 301.252 148.144C302.455 146.48 302.982 144.723 302.834 142.872C300.851 141.364 299.268 141.716 298.086 143.926C298.79 145.332 299.493 146.738 300.197 148.144C297.016 151.893 297.369 155.057 301.252 157.634C302.532 157.373 303.235 156.67 303.362 155.525C303.713 155.525 304.066 155.525 304.417 155.525C304.417 156.228 304.417 156.93 304.417 157.634C301.752 158.853 298.938 158.853 295.976 157.634C297.264 151.952 297.264 146.504 295.976 141.29C298.842 139.022 301.48 139.198 303.89 141.817C303.841 145.297 303.666 148.812 303.362 152.361Z" fill="#333841"/>
<path fill-rule="evenodd" clip-rule="evenodd" d="M288.59 132.328C290.683 135.137 293.497 136.894 297.031 137.6C295.431 139.377 294.024 141.31 292.81 143.399C294.588 147.235 295.291 151.276 294.921 155.525C292.322 155.228 290.035 154.174 288.062 152.361C287.288 147.82 286.76 143.251 286.479 138.654C286.52 136.069 287.224 133.96 288.59 132.328Z" fill="#FBF8CB"/>
<path fill-rule="evenodd" clip-rule="evenodd" d="M93.3828 244.095C94.438 245.852 95.8448 247.258 97.6035 248.312C97.6147 249.912 98.3181 251.142 99.7138 252.003C97.9896 252.523 96.2309 252.698 94.438 252.53C86.8711 251.625 79.1331 250.923 71.2242 250.421C69.7162 240.91 69.8921 231.421 71.7518 221.952C72.4552 202.973 72.4552 183.994 71.7518 165.014C70.1459 184.057 68.0356 203.036 65.4207 221.952C64.5427 232.163 64.7185 242.356 65.9483 252.53C66.8494 253.607 67.9046 254.486 69.1138 255.166C68.1346 255.575 67.4313 256.278 67.0035 257.275C67.6888 259.057 67.6888 260.989 67.0035 263.074C61.7992 261.09 56.5233 260.388 51.1759 260.965C51.0069 259.174 51.1828 257.416 51.7035 255.693C53.8994 256.571 56.1856 256.571 58.5621 255.693C56.8303 253.101 55.7751 248.884 55.3966 243.04C55.5725 241.282 55.7483 239.526 55.9242 237.768C56.7293 240.471 57.2569 240.471 57.5069 237.768C55.5588 231.08 54.8553 224.403 55.3966 217.734C56.8041 204.735 58.3868 191.731 60.1449 178.721C61.4654 177.139 62.5206 175.381 63.3104 173.449C63.6621 174.153 64.0139 174.855 64.3656 175.558C64.7894 174.112 65.317 172.706 65.9483 171.341C64.4953 168.096 64.6711 164.933 66.4759 161.851C66.8276 162.202 67.1794 162.554 67.5311 162.905C67.828 158.052 69.5865 153.834 72.8069 150.253C75.1167 152.987 77.4029 152.987 79.6656 150.253C77.6361 149.401 75.5258 148.873 73.3345 148.671C74.3897 147.793 75.4449 146.913 76.5 146.035C75.9458 145.305 75.2424 144.778 74.3897 144.453C76.114 143.932 77.8726 143.757 79.6656 143.926C79.6656 145.332 79.6656 146.738 79.6656 148.144C83.9903 148.521 88.211 148.521 92.3276 148.144C89.0383 145.296 85.1693 143.89 80.7207 143.926C80.8861 142.478 80.7102 141.072 80.1931 139.709C79.4651 141.014 78.9375 141.014 78.6104 139.709C79.3585 138.755 80.4137 138.404 81.7759 138.654C86.6355 138.089 91.2079 136.683 95.4931 134.437C99.6091 134.859 101.719 137.144 101.824 141.29C101.216 143.543 100.864 145.828 100.769 148.144C99.7138 148.144 98.6587 148.144 97.6035 148.144C95.7366 155.769 94.1538 163.501 92.8552 171.341C92.097 196.296 91.7453 221.251 91.8 246.203C92.0938 245.238 92.6214 244.535 93.3828 244.095Z" fill="#C6F0FC"/>
<path fill-rule="evenodd" clip-rule="evenodd" d="M221.059 140.763C226.187 140.95 231.11 142.004 235.831 143.926C240.677 144.521 245.25 145.926 249.548 148.144C244.876 161.758 240.304 175.289 235.831 188.738C236.182 189.089 236.535 189.442 236.886 189.793C236.248 192.414 235.193 193.996 233.721 194.538C234.366 197.227 234.19 200.039 233.193 202.973C232.489 211.408 232.489 219.843 233.193 228.278C234.756 229.302 235.636 230.708 235.831 232.496C232.691 235.451 229.35 238.263 225.807 240.931C225.103 244.095 225.103 247.258 225.807 250.421C228.684 253.828 232.026 256.639 235.831 258.856C238.088 257.299 240.55 256.244 243.217 255.693C244.795 262 246.378 268.327 247.966 274.672C248.811 277.695 248.635 280.507 247.438 283.107C230.053 289.058 212.115 291.341 193.624 289.961C183.229 287.921 173.028 285.285 163.024 282.053C163.024 279.241 163.024 276.43 163.024 273.618C163.274 272.257 162.923 271.202 161.969 270.455C162.673 269.4 163.376 268.346 164.079 267.291C165.582 265.167 166.285 262.707 166.19 259.911C167.766 251.151 169.173 242.364 170.41 233.551C173.609 224.493 174.311 215.356 172.521 206.136C172.865 201.513 172.512 196.945 171.466 192.429C166.603 190.373 162.735 187.209 159.859 182.939C158.956 181.852 158.253 180.623 157.748 179.249C160.024 174.528 162.135 169.783 164.079 165.014C167.936 156.768 173.212 149.563 179.907 143.399C181.95 142.542 184.06 142.015 186.238 141.817C189.696 141.518 193.036 141.869 196.262 142.872C196.32 149.452 197.552 155.779 199.955 161.851C207.162 154.788 214.196 147.758 221.059 140.763Z" fill="#89DDC0"/>
<path fill-rule="evenodd" clip-rule="evenodd" d="M193.624 139.709C195.164 139.638 196.57 139.989 197.845 140.763C198.606 146.783 199.661 152.758 201.01 158.688C206.656 151.993 212.635 145.667 218.948 139.709C219.995 139.527 220.698 139.879 221.059 140.763C214.196 147.758 207.162 154.788 199.955 161.851C197.551 155.779 196.32 149.452 196.262 142.872C193.036 141.869 189.696 141.518 186.238 141.817C188.575 141.008 191.037 140.304 193.624 139.709Z" fill="#A9D1B6"/>
<path fill-rule="evenodd" clip-rule="evenodd" d="M303.362 152.361C303.362 153.416 303.362 154.47 303.362 155.525C303.235 156.67 302.532 157.373 301.252 157.633C297.369 155.056 297.016 151.893 300.197 148.144C299.493 146.738 298.79 145.332 298.086 143.926C299.268 141.716 300.851 141.364 302.834 142.872C302.982 144.723 302.455 146.48 301.252 148.144C301.773 149.753 302.477 151.158 303.362 152.361Z" fill="#21243C"/>
<path fill-rule="evenodd" clip-rule="evenodd" d="M131.369 153.416C131.369 152.712 131.369 152.01 131.369 151.307C132.097 149.852 132.45 148.445 132.424 147.089C134.183 148.32 135.941 149.549 137.7 150.78C135.262 151.029 133.151 151.907 131.369 153.416Z" fill="#745758"/>
<path fill-rule="evenodd" clip-rule="evenodd" d="M321.3 135.491C323.315 137.046 324.546 139.155 324.993 141.817C325.179 145.383 325.706 148.898 326.576 152.361C328.715 153.619 330.297 155.377 331.324 157.633C333.331 167.428 331.221 176.214 324.993 183.994C323.314 187.262 320.676 189.02 317.079 189.266C317.079 188.211 317.079 187.157 317.079 186.102C318.528 186.268 319.936 186.092 321.3 185.575C326.712 179.538 329.878 172.508 330.797 164.487C330.67 155.031 326.097 151.341 317.079 153.416C318.652 151.539 320.762 150.837 323.41 151.307C323.746 145.867 323.043 140.595 321.3 135.491Z" fill="#505058"/>
<path fill-rule="evenodd" clip-rule="evenodd" d="M390.941 142.872C392.542 142.883 393.773 143.586 394.634 144.981C397.123 147.851 399.057 151.014 400.438 154.47C400.367 156.475 400.72 158.407 401.493 160.269C400.058 162.104 398.3 164.389 396.217 167.123C394.804 164.324 392.87 161.864 390.414 159.742C389.897 158.379 389.72 156.972 389.886 155.525C387.964 155.874 386.205 156.577 384.61 157.633C384.948 154.051 384.597 150.535 383.555 147.089C382.509 151.249 382.158 155.467 382.5 159.742C381.445 159.742 380.39 159.742 379.334 159.742C379.218 162.441 379.921 164.9 381.445 167.123C382.149 166.069 382.851 165.014 383.555 163.96C384.632 165.437 385.688 166.844 386.721 168.178C387.743 172.509 389.502 176.551 391.996 180.303C391.41 180.707 391.058 181.234 390.941 181.885C389.102 183.088 388.047 184.846 387.776 187.157C388.452 191.321 390.21 194.835 393.052 197.701C393.052 198.052 393.052 198.404 393.052 198.755C392.127 198.617 391.424 198.968 390.941 199.81C392.272 203.564 393.151 207.431 393.579 211.408C397.837 218.149 401.706 225.179 405.186 232.496C409.183 237.082 412.701 242.003 415.738 247.258C416.089 246.907 416.442 246.555 416.793 246.203C416.996 248.393 417.523 250.502 418.376 252.53C418.764 241.386 417.709 230.315 415.21 219.316C415.748 217.391 416.628 217.215 417.848 218.789C419.6 229.968 420.655 241.215 421.014 252.53C421.133 255.138 422.188 257.247 424.179 258.856C428.492 245.834 431.481 232.479 433.148 218.789C434.203 218.789 435.259 218.789 436.314 218.789C433.329 234.583 430.516 250.399 427.872 266.237C427.442 267.442 426.738 268.497 425.762 269.4C422.982 268.374 420.871 266.617 419.431 264.128C416.904 267.672 413.738 270.484 409.934 272.564C410.943 274.224 411.647 275.982 412.045 277.836C412.407 279.926 411.703 281.333 409.934 282.053C408.936 280.332 407.881 278.575 406.769 276.781C402.61 272.358 398.214 268.14 393.579 264.128C389.112 255.806 383.836 248.074 377.752 240.931C377.279 235.628 376.576 230.356 375.641 225.115C373.271 220.284 371.161 215.363 369.31 210.354C368.786 207.564 368.61 204.752 368.783 201.918C367.728 201.918 366.672 201.918 365.617 201.918C365.679 187.726 364.624 173.667 362.452 159.742C362.628 157.633 362.803 155.525 362.979 153.416C365.425 152.331 367.359 150.222 368.783 147.089C370.703 145.035 373.166 143.981 376.169 143.926C381.195 144.215 386.119 143.864 390.941 142.872Z" fill="#C3EEF9"/>
<path fill-rule="evenodd" clip-rule="evenodd" d="M131.369 153.416C131.369 153.767 131.369 154.119 131.369 154.47C130.911 158.453 129.505 161.967 127.148 165.014C127.912 161.489 128.791 157.975 129.786 154.47C130.19 153.884 130.718 153.533 131.369 153.416Z" fill="#5B7682"/>
<path fill-rule="evenodd" clip-rule="evenodd" d="M151.417 141.817C156.207 149.283 160.427 157.015 164.079 165.014C162.135 169.783 160.024 174.528 157.748 179.249C158.253 180.623 158.956 181.852 159.859 182.939C158.808 183.03 157.929 182.678 157.221 181.885C153.952 174.299 150.434 166.919 146.669 159.742C145.859 155.082 146.034 150.513 147.197 146.035C148.139 144.14 149.545 142.735 151.417 141.817Z" fill="#C7EEF6"/>
<path fill-rule="evenodd" clip-rule="evenodd" d="M122.928 151.307C121.999 154.219 120.769 157.031 119.234 159.742C118.048 162.844 117.696 166.007 118.179 169.232C118.906 170.135 119.785 170.838 120.817 171.341C123.331 169.532 125.441 167.423 127.148 165.014C126.16 171.745 122.819 173.502 117.124 170.286C115.998 162.948 117.932 156.621 122.928 151.307Z" fill="#51707C"/>
<path fill-rule="evenodd" clip-rule="evenodd" d="M287.535 130.219C288.419 130.58 288.771 131.282 288.59 132.328C287.224 133.96 286.521 136.069 286.479 138.654C286.76 143.251 287.288 147.82 288.062 152.361C290.035 154.174 292.322 155.228 294.921 155.525C295.291 151.276 294.588 147.235 292.81 143.399C294.024 141.31 295.431 139.378 297.031 137.6C301.418 137.777 305.639 137.075 309.693 135.491C308.863 137.182 307.456 137.886 305.472 137.6C305.484 139.758 305.835 141.867 306.528 143.926C304.846 147.601 304.143 151.467 304.417 155.525C304.066 155.525 303.713 155.525 303.362 155.525C303.362 154.47 303.362 153.416 303.362 152.361C303.666 148.812 303.841 145.297 303.89 141.817C301.48 139.198 298.842 139.022 295.976 141.29C297.264 146.504 297.264 151.952 295.976 157.634C293.514 157.634 291.051 157.634 288.59 157.634C289.215 166.076 289.919 174.511 290.7 182.939C289.293 182.939 287.886 182.939 286.479 182.939C283.733 170.587 281.622 158.11 280.148 145.508C280.235 140.86 281.29 136.466 283.314 132.328C284.72 131.625 286.128 130.922 287.535 130.219Z" fill="#E1E3DE"/>
<path fill-rule="evenodd" clip-rule="evenodd" d="M384.61 157.633C385.314 161.148 386.017 164.663 386.721 168.177C385.688 166.844 384.633 165.437 383.555 163.96C382.851 165.014 382.149 166.069 381.445 167.123C379.921 164.9 379.218 162.44 379.334 159.742C380.39 159.742 381.445 159.742 382.5 159.742C382.158 155.467 382.509 151.249 383.555 147.089C384.597 150.535 384.948 154.051 384.61 157.633Z" fill="#9FC5D2"/>
<path fill-rule="evenodd" clip-rule="evenodd" d="M130.314 131.273C131.72 131.273 133.128 131.273 134.535 131.273C134.535 131.977 134.886 132.328 135.59 132.328C136.728 134.482 138.487 135.888 140.866 136.545C140.866 137.249 141.217 137.6 141.921 137.6C143.439 139.561 145.197 141.319 147.197 142.872C146.01 144.087 146.01 145.141 147.197 146.035C146.034 150.513 145.859 155.082 146.669 159.742C150.434 166.919 153.952 174.299 157.221 181.885C157.929 182.678 158.808 183.03 159.859 182.939C162.735 187.21 166.603 190.373 171.466 192.429C172.512 196.945 172.865 201.514 172.521 206.136C169.687 211.649 165.466 216.042 159.859 219.316C155.542 220.61 151.849 219.732 148.779 216.68C147.215 211.633 145.456 206.712 143.503 201.919C141.681 187.372 139.571 172.961 137.172 158.688C135.641 156.617 133.707 155.212 131.369 154.47C131.369 154.119 131.369 153.767 131.369 153.416C133.151 151.907 135.262 151.029 137.7 150.78C135.941 149.549 134.183 148.32 132.424 147.089C132.449 148.445 132.097 149.852 131.369 151.307C129.981 150.278 128.575 149.224 127.148 148.144C125.722 149.224 124.315 150.278 122.928 151.307C123.506 149.31 124.561 147.553 126.093 146.035C125.017 143.998 124.841 141.889 125.566 139.709C127.76 137.213 129.343 134.402 130.314 131.273Z" fill="#DEAB99"/>
<path fill-rule="evenodd" clip-rule="evenodd" d="M131.369 151.307C131.369 152.01 131.369 152.713 131.369 153.416C130.718 153.533 130.19 153.884 129.786 154.47C128.791 157.975 127.912 161.489 127.148 165.014C125.441 167.424 123.331 169.532 120.817 171.341C119.785 170.838 118.906 170.136 118.179 169.232C117.696 166.008 118.048 162.844 119.234 159.742C120.769 157.031 121.999 154.219 122.928 151.307C124.315 150.278 125.722 149.224 127.148 148.144C128.575 149.224 129.981 150.278 131.369 151.307Z" fill="#C7E9F3"/>
<path fill-rule="evenodd" clip-rule="evenodd" d="M317.079 154.47C316.085 167.787 315.734 181.142 316.024 194.538C317.386 194.288 318.441 194.639 319.19 195.592C314.642 194.98 310.07 194.628 305.472 194.538C301.221 195.272 297 195.624 292.81 195.592C291.051 194.889 289.293 194.186 287.534 193.483C292.441 193.327 294.375 190.867 293.338 186.102C292.591 185.173 291.711 184.471 290.7 183.994C290.7 183.642 290.7 183.29 290.7 182.939C289.919 174.511 289.215 166.076 288.59 157.633C291.051 157.633 293.514 157.633 295.976 157.633C298.938 158.853 301.752 158.853 304.417 157.633C306.879 157.633 309.342 157.633 311.803 157.633C307.492 163.187 305.733 169.513 306.528 176.613C306.704 179.776 306.879 182.939 307.055 186.102C308.122 186.985 309.353 187.336 310.748 187.157C306.552 178.396 306.728 169.609 311.276 160.797C312.68 158.165 314.614 156.056 317.079 154.47Z" fill="#C5EBF6"/>
<path fill-rule="evenodd" clip-rule="evenodd" d="M412.045 144.98C412.002 156.266 412.178 167.513 412.572 178.721C411.338 175.182 410.106 171.666 408.879 168.177C410.622 160.681 411.678 152.949 412.045 144.98Z" fill="#7D7178"/>
<path fill-rule="evenodd" clip-rule="evenodd" d="M283.314 132.328C281.29 136.466 280.235 140.86 280.148 145.508C281.622 158.11 283.733 170.587 286.479 182.939C287.886 182.939 289.293 182.939 290.7 182.939C290.7 183.29 290.7 183.642 290.7 183.993C288.809 183.852 287.051 184.203 285.424 185.048C282.003 172.092 279.893 158.912 279.093 145.508C278.3 140.266 279.706 135.873 283.314 132.328Z" fill="#605F65"/>
<path fill-rule="evenodd" clip-rule="evenodd" d="M316.024 153.416C316.376 153.416 316.728 153.416 317.079 153.416C317.079 153.767 317.079 154.119 317.079 154.47C314.614 156.056 312.68 158.165 311.276 160.797C306.728 169.609 306.552 178.396 310.748 187.157C309.353 187.336 308.122 186.985 307.055 186.102C306.879 182.939 306.704 179.776 306.528 176.613C305.733 169.513 307.492 163.187 311.803 157.633C312.859 155.876 314.265 154.47 316.024 153.416Z" fill="#344D58"/>
<path fill-rule="evenodd" clip-rule="evenodd" d="M386.721 168.177C388.979 171.977 391.265 175.843 393.579 179.776C398.369 177.865 401.709 179.271 403.603 183.994C399.854 179.921 395.634 179.219 390.941 181.885C391.059 181.234 391.41 180.707 391.997 180.303C389.502 176.551 387.743 172.509 386.721 168.177Z" fill="#6A8B96"/>
<path fill-rule="evenodd" clip-rule="evenodd" d="M390.941 181.885C389.277 187.465 389.98 192.737 393.052 197.701C390.21 194.835 388.452 191.321 387.776 187.157C388.047 184.846 389.102 183.088 390.941 181.885Z" fill="#6D8F9C"/>
<path fill-rule="evenodd" clip-rule="evenodd" d="M283.314 186.102C283.314 187.508 283.314 188.914 283.314 190.32C283.314 191.374 283.314 192.429 283.314 193.483C279.144 192.669 274.923 192.318 270.652 192.429C270.652 190.671 270.652 188.914 270.652 187.157C273.487 187.33 276.301 187.154 279.093 186.63C280.484 184.911 281.89 184.735 283.314 186.102Z" fill="#EFE3BE"/>
<path fill-rule="evenodd" clip-rule="evenodd" d="M290.7 183.994C291.711 184.471 292.591 185.173 293.338 186.102C294.375 190.867 292.441 193.327 287.534 193.483C285.92 192.733 284.513 191.679 283.314 190.32C283.314 188.914 283.314 187.508 283.314 186.102C284.018 185.751 284.72 185.399 285.424 185.048C287.051 184.203 288.809 183.852 290.7 183.994Z" fill="#2C2D44"/>
<path fill-rule="evenodd" clip-rule="evenodd" d="M305.472 194.538C305.237 199.211 307.347 202.023 311.803 202.973C309.312 202.789 306.85 202.438 304.417 201.918C304.417 200.513 304.417 199.106 304.417 197.701C300.9 197.35 297.382 196.998 293.865 196.646C292.965 201.887 292.262 207.159 291.755 212.462C290.901 214.352 290.374 216.461 290.172 218.789C289.821 219.14 289.469 219.492 289.117 219.843C289.217 211.585 290.449 203.502 292.81 195.592C297 195.624 301.221 195.273 305.472 194.538Z" fill="#56585F"/>
<path fill-rule="evenodd" clip-rule="evenodd" d="M412.045 142.872C417.735 143.77 423.363 145.001 428.928 146.562C432.221 147.582 434.683 149.515 436.314 152.361C435.993 153.047 435.642 153.75 435.259 154.47C442.847 168.265 448.123 183.027 451.086 198.755C451.606 201.187 451.958 203.647 452.141 206.136C452.9 208.523 453.251 210.983 453.197 213.517C453.404 219.891 453.052 226.217 452.141 232.496C449.989 240.034 448.231 247.767 446.866 255.693C445.499 258.307 444.444 261.119 443.7 264.128C442.439 266.502 441.384 268.963 440.534 271.509C438.886 271.263 437.48 270.56 436.314 269.4C433.5 268.346 430.687 267.292 427.872 266.237C430.516 250.399 433.329 234.583 436.314 218.789C435.259 218.789 434.203 218.789 433.148 218.789C431.481 232.479 428.492 245.834 424.179 258.856C422.188 257.247 421.133 255.138 421.014 252.53C420.655 241.215 419.6 229.968 417.848 218.789C416.629 217.215 415.748 217.391 415.21 219.316C417.709 230.315 418.764 241.386 418.376 252.53C417.523 250.502 416.996 248.393 416.793 246.203C416.442 246.555 416.089 246.907 415.738 247.258C412.701 242.003 409.183 237.082 405.186 232.496C401.706 225.179 397.837 218.149 393.579 211.408C393.151 207.431 392.272 203.564 390.941 199.81C391.424 198.968 392.127 198.617 393.052 198.755C395.297 203.393 398.814 205.149 403.603 204.027C401.938 203.186 400.18 202.659 398.328 202.446C396.706 200.646 394.947 199.064 393.052 197.701C389.98 192.737 389.277 187.465 390.941 181.885C395.634 179.219 399.854 179.921 403.603 183.994C401.709 179.271 398.369 177.865 393.579 179.776C391.265 175.843 388.979 171.977 386.721 168.178C386.017 164.663 385.314 161.148 384.61 157.633C386.205 156.577 387.964 155.874 389.886 155.525C389.721 156.972 389.897 158.379 390.414 159.742C392.87 161.864 394.804 164.324 396.217 167.123C398.3 164.389 400.058 162.104 401.493 160.269C400.72 158.407 400.367 156.475 400.438 154.47C404.059 158.544 406.873 163.114 408.879 168.178C410.106 171.667 411.338 175.182 412.572 178.722C412.178 167.513 412.002 156.266 412.045 144.981C412.045 144.277 412.045 143.575 412.045 142.872Z" fill="#C6EFFA"/>
<path fill-rule="evenodd" clip-rule="evenodd" d="M423.652 208.245C423.3 208.245 422.948 208.245 422.597 208.245C420.452 200.488 419.046 192.58 418.376 184.521C420.674 172.308 420.85 160.182 418.903 148.144C420.005 149.328 420.708 150.733 421.014 152.361C421.648 163.266 421.472 174.162 420.486 185.048C421.202 192.827 422.257 200.56 423.652 208.245Z" fill="#74909E"/>
<path fill-rule="evenodd" clip-rule="evenodd" d="M403.604 183.994C406.465 187.448 408.223 191.489 408.879 196.119C409.024 198.814 408.145 201.099 406.241 202.973C407.406 196.42 406.527 190.093 403.604 183.994Z" fill="#6A8C97"/>
<path fill-rule="evenodd" clip-rule="evenodd" d="M311.803 202.973C314.575 203.597 317.389 203.948 320.245 204.027C320.245 202.973 320.245 201.919 320.245 200.864C321.3 200.864 322.355 200.864 323.41 200.864C325.223 201.627 327.158 202.331 329.214 202.973C329.178 209.316 328.65 215.643 327.631 221.952C326.927 221.952 326.576 222.303 326.576 223.007C322.107 222.02 317.534 221.669 312.859 221.952C312.859 220.898 312.859 219.843 312.859 218.789C305.886 217.399 298.851 216.345 291.755 215.626C291.755 214.571 291.755 213.517 291.755 212.463C292.262 207.159 292.965 201.887 293.865 196.646C297.382 196.998 300.9 197.35 304.417 197.701C304.417 199.106 304.417 200.513 304.417 201.919C306.85 202.438 309.312 202.789 311.803 202.973Z" fill="#FBFBCD"/>
<path fill-rule="evenodd" clip-rule="evenodd" d="M305.472 194.538C310.07 194.628 314.642 194.98 319.19 195.592C320.175 196.718 320.528 198.124 320.245 199.81C322.004 199.81 323.762 199.81 325.521 199.81C325.16 200.693 324.457 201.045 323.41 200.864C322.355 200.864 321.3 200.864 320.245 200.864C320.245 201.918 320.245 202.973 320.245 204.027C317.39 203.948 314.575 203.597 311.803 202.973C307.347 202.023 305.237 199.211 305.472 194.538Z" fill="#36395C"/>
<path fill-rule="evenodd" clip-rule="evenodd" d="M325.521 199.81C327.475 200.431 329.409 201.134 331.324 201.918C331.347 207.917 330.82 213.892 329.741 219.843C328.908 221.013 328.38 222.418 328.159 224.061C327.669 223.435 327.493 222.731 327.631 221.952C328.65 215.643 329.178 209.316 329.214 202.973C327.158 202.331 325.223 201.627 323.41 200.864C324.457 201.045 325.16 200.693 325.521 199.81Z" fill="#545456"/>
<path fill-rule="evenodd" clip-rule="evenodd" d="M451.086 198.755C452.141 198.755 453.197 198.755 454.252 198.755C454.79 201.8 454.087 204.26 452.141 206.136C451.958 203.647 451.606 201.187 451.086 198.755Z" fill="#616C62"/>
<path fill-rule="evenodd" clip-rule="evenodd" d="M393.052 197.701C394.947 199.064 396.706 200.646 398.328 202.446C400.181 202.658 401.938 203.186 403.603 204.027C398.814 205.149 395.297 203.392 393.052 198.755C393.052 198.404 393.052 198.052 393.052 197.701Z" fill="#6C8996"/>
<path fill-rule="evenodd" clip-rule="evenodd" d="M261.155 199.81C261.917 200.25 262.445 200.953 262.738 201.918C263.267 206.147 263.794 210.364 264.321 214.571C262.21 214.571 260.1 214.571 257.99 214.571C259.57 209.844 260.625 204.924 261.155 199.81Z" fill="#D7B3A8"/>
<path fill-rule="evenodd" clip-rule="evenodd" d="M331.852 272.564C327.272 272.937 326.393 275.046 329.214 278.89C331.768 281.898 334.758 284.359 338.183 286.271C341.134 286.763 342.542 288.52 342.403 291.543C336.093 290.185 331.169 286.669 327.631 280.999C326.761 280.065 325.705 279.713 324.466 279.944C323.859 278.15 322.98 276.392 321.828 274.672C321.301 279.228 321.125 283.797 321.3 288.38C320.327 283.64 319.623 278.719 319.19 273.618C320.882 272.788 321.586 271.383 321.3 269.4C323.359 269.112 324.941 269.815 326.048 271.509C326.576 270.982 327.103 270.455 327.631 269.927C325.682 267.208 325.155 264.221 326.048 260.965C327.369 259.382 328.425 257.625 329.214 255.693C332.171 243.225 335.865 230.923 340.293 218.789C339.071 213.221 338.192 207.597 337.655 201.918C336.864 201.258 335.984 200.731 335.017 200.337C336.841 189.862 338.072 179.142 338.71 168.177C339.201 184.818 340.784 201.337 343.459 217.734C338.362 234.245 333.439 250.765 328.686 267.291C329.311 269.319 330.366 271.076 331.852 272.564Z" fill="#D5D5D5"/>
<path fill-rule="evenodd" clip-rule="evenodd" d="M422.597 208.245C422.948 208.245 423.3 208.245 423.652 208.245C427.846 211.518 427.494 214.329 422.597 216.68C418.487 215.344 417.431 212.708 419.431 208.772C420.431 208.263 421.486 208.088 422.597 208.245Z" fill="#29374E"/>
<path fill-rule="evenodd" clip-rule="evenodd" d="M503.845 204.027C509.434 204.588 509.434 205.467 503.845 206.663C500.014 213.716 497.903 221.273 497.514 229.333C497.162 229.333 496.81 229.333 496.459 229.333C496.374 220.101 498.836 211.666 503.845 204.027Z" fill="#38716B"/>
<path fill-rule="evenodd" clip-rule="evenodd" d="M522.838 208.245C523.032 214.288 523.735 220.263 524.948 226.17C525.491 236.024 526.193 245.866 527.059 255.693C527.119 256.862 527.47 257.917 528.114 258.856C527.417 260.4 527.066 262.158 527.059 264.128C528.153 268.301 528.857 272.518 529.169 276.781C527.762 276.781 526.355 276.781 524.948 276.781C525.287 275.393 525.638 273.986 526.003 272.564C525.668 271.354 524.965 270.475 523.893 269.928C525.234 267.235 525.938 264.247 526.003 260.965C525.64 251.722 523.53 242.935 519.672 234.605C522.729 231.198 522.202 228.386 518.09 226.17C516.613 230.733 516.437 235.303 517.562 239.877C517.516 248.717 513.295 251.88 504.9 249.367C507.026 247.865 509.488 247.163 512.286 247.258C512.286 246.203 512.286 245.149 512.286 244.095C515.193 233.199 516.072 221.952 514.924 210.354C514.544 208.328 513.664 206.57 512.286 205.082C511.116 203.932 510.061 203.932 509.121 205.082C510.634 205.851 511.864 206.906 512.814 208.245C513.151 213.014 513.679 217.759 514.397 222.479C514.061 226.52 513.006 230.21 511.231 233.551C509.389 231.703 507.278 230.298 504.9 229.333C504.92 227.688 505.271 226.106 505.955 224.588C507.983 223.092 509.39 221.158 510.176 218.789C508.369 215.199 506.084 214.847 503.317 217.735C502.759 219.933 503.287 221.866 504.9 223.534C504.365 226.217 502.957 228.151 500.679 229.333C499.624 229.333 498.569 229.333 497.514 229.333C497.903 221.273 500.013 213.716 503.845 206.663C509.434 205.468 509.434 204.588 503.845 204.027C504.725 202.711 506.131 202.008 508.066 201.918C510.873 202.18 513.335 203.234 515.452 205.082C517.198 210.16 518.077 215.432 518.09 220.898C520.097 216.749 521.679 212.531 522.838 208.245Z" fill="#8BD4BD"/>
<path fill-rule="evenodd" clip-rule="evenodd" d="M130.314 218.789C133.973 222.628 137.491 226.669 140.866 230.914C140.239 231.404 139.535 231.58 138.755 231.442C135.5 227.492 132.687 223.274 130.314 218.789Z" fill="#6B7B85"/>
<path fill-rule="evenodd" clip-rule="evenodd" d="M504.9 229.333C503.493 229.333 502.086 229.333 500.679 229.333C502.957 228.151 504.365 226.217 504.9 223.534C503.287 221.866 502.759 219.933 503.317 217.734C506.084 214.846 508.369 215.199 510.176 218.789C509.39 221.158 507.983 223.092 505.955 224.588C505.271 226.106 504.92 227.688 504.9 229.333Z" fill="#37505E"/>
<path fill-rule="evenodd" clip-rule="evenodd" d="M461.638 218.789C464.244 218.951 466.355 220.006 467.969 221.952C465.536 225.474 462.37 228.285 458.472 230.387C459.176 230.738 459.879 231.091 460.583 231.442C463.154 230.133 465.792 229.079 468.497 228.278C470.795 231.408 472.025 231.057 472.19 227.224C474.097 227.215 475.856 227.742 477.465 228.806C473.76 230.95 470.243 233.235 466.914 235.659C465.682 236.01 464.452 236.363 463.221 236.714C460.307 235.746 457.318 235.044 454.252 234.605C454.011 230.503 454.364 226.461 455.307 222.479C456.78 220.123 458.89 218.892 461.638 218.789Z" fill="#7D494A"/>
<path fill-rule="evenodd" clip-rule="evenodd" d="M130.314 218.789C128.562 216.946 126.452 216.419 123.983 217.207C120.856 219.275 118.043 221.735 115.541 224.588C116.615 225.694 116.791 226.925 116.069 228.279C113.489 229.836 111.203 231.769 109.21 234.078C102.601 233.523 97.6769 236.335 94.438 242.513C95.7475 244.338 96.8026 246.271 97.6035 248.312C95.8448 247.258 94.438 245.852 93.3828 244.095C93.2138 242.303 93.3897 240.545 93.9104 238.823C96.7242 236.714 99.5379 234.605 102.352 232.496C102.703 231.091 103.055 229.684 103.407 228.279C106.868 224.1 111.264 221.816 116.597 221.425C119.432 218.61 122.597 216.326 126.093 214.571C128.571 214.938 129.978 216.345 130.314 218.789Z" fill="#3E4767"/>
<path fill-rule="evenodd" clip-rule="evenodd" d="M291.755 215.626C298.851 216.345 305.886 217.399 312.859 218.789C312.859 219.843 312.859 220.898 312.859 221.952C317.534 221.669 322.107 222.02 326.576 223.007C321.52 224.527 316.245 225.581 310.748 226.17C310.896 224.457 310.192 223.228 308.638 222.479C303.251 222.175 297.975 221.296 292.81 219.843C291.83 218.59 291.479 217.184 291.755 215.626Z" fill="#F5E4BB"/>
<path fill-rule="evenodd" clip-rule="evenodd" d="M539.721 199.81C544.963 217.392 548.656 235.317 550.8 253.584C553.288 256.454 555.222 259.617 556.603 263.074C556.603 265.183 556.603 267.291 556.603 269.4C556.96 272.202 556.256 274.662 554.493 276.781C553.875 276.561 553.347 276.209 552.91 275.727C552.559 272.915 552.207 270.104 551.855 267.291C551.451 266.705 550.923 266.354 550.272 266.237C546.6 264.073 543.083 261.613 539.721 258.856C535.624 247.513 530.701 236.618 524.948 226.17C523.735 220.263 523.032 214.288 522.838 208.245C528.142 204.892 533.769 202.08 539.721 199.81Z" fill="#78494B"/>
<path fill-rule="evenodd" clip-rule="evenodd" d="M329.741 219.843C332.473 227.954 332.473 236.038 329.741 244.095C328.335 244.095 326.927 244.095 325.521 244.095C325.771 245.456 325.419 246.51 324.466 247.258C324.623 246.149 324.448 245.094 323.938 244.095C323.716 245.737 323.189 247.143 322.355 248.312C322.632 246.754 322.28 245.348 321.3 244.095C318.195 243.31 315.029 242.783 311.803 242.513C310.478 242.073 309.774 241.195 309.693 239.877C310.432 235.345 310.783 230.776 310.748 226.17C316.245 225.581 321.521 224.527 326.576 223.006C326.576 222.303 326.927 221.952 327.631 221.952C327.493 222.731 327.669 223.435 328.159 224.061C328.38 222.418 328.908 221.013 329.741 219.843Z" fill="#E0AC99"/>
<path fill-rule="evenodd" clip-rule="evenodd" d="M512.286 244.095C512.547 240.469 512.196 236.954 511.231 233.551C513.006 230.21 514.061 226.52 514.397 222.479C513.679 217.759 513.151 213.014 512.814 208.245C511.864 206.906 510.634 205.851 509.121 205.082C510.061 203.932 511.116 203.932 512.286 205.082C513.664 206.571 514.544 208.328 514.924 210.354C516.072 221.952 515.193 233.199 512.286 244.095Z" fill="#4C7976"/>
<path fill-rule="evenodd" clip-rule="evenodd" d="M235.831 232.496C239.682 235.951 244.254 237.885 249.548 238.295C251.198 239.096 252.253 240.326 252.714 241.986C249.295 243.686 247.712 246.499 247.966 250.421C246.134 252.069 244.551 253.827 243.217 255.693C240.55 256.244 238.088 257.299 235.831 258.856C232.026 256.639 228.684 253.828 225.807 250.421C225.103 247.258 225.103 244.095 225.807 240.931C229.35 238.263 232.691 235.451 235.831 232.496Z" fill="#DAAA98"/>
<path fill-rule="evenodd" clip-rule="evenodd" d="M130.314 218.789C132.687 223.274 135.5 227.492 138.755 231.442C135.321 234.428 133.562 238.294 133.479 243.04C130.383 243.872 128.448 245.981 127.676 249.367C125.742 251.299 123.807 253.233 121.872 255.166C117.588 256.947 113.719 259.232 110.266 262.019C106.045 257.451 101.824 252.881 97.6035 248.312C96.8026 246.271 95.7475 244.338 94.438 242.513C97.6769 236.335 102.601 233.523 109.21 234.078C111.203 231.769 113.489 229.836 116.069 228.279C116.791 226.925 116.615 225.694 115.541 224.588C118.043 221.735 120.856 219.275 123.983 217.207C126.452 216.419 128.562 216.946 130.314 218.789Z" fill="#DFE0E2"/>
<path fill-rule="evenodd" clip-rule="evenodd" d="M453.197 213.517C456.627 214.523 459.441 216.279 461.638 218.789C458.89 218.892 456.78 220.123 455.307 222.479C454.364 226.461 454.011 230.503 454.252 234.605C457.318 235.044 460.307 235.746 463.221 236.714C464.452 236.363 465.682 236.01 466.914 235.659C470.243 233.235 473.76 230.95 477.465 228.806C475.856 227.742 474.097 227.215 472.19 227.224C472.025 231.057 470.795 231.408 468.497 228.279C465.792 229.079 463.154 230.133 460.583 231.442C459.879 231.091 459.176 230.738 458.472 230.387C462.37 228.285 465.536 225.474 467.969 221.952C473.922 223.877 479.549 226.513 484.852 229.86C488.923 230.714 492.791 230.538 496.459 229.333C496.81 229.333 497.162 229.333 497.514 229.333C498.569 229.333 499.624 229.333 500.679 229.333C502.086 229.333 503.493 229.333 504.9 229.333C507.278 230.298 509.389 231.703 511.231 233.551C512.195 236.954 512.547 240.468 512.286 244.095C512.286 245.149 512.286 246.203 512.286 247.258C509.488 247.163 507.026 247.865 504.9 249.367C504.196 249.367 503.493 249.367 502.79 249.367C499.934 249.288 497.12 248.936 494.348 248.312C493.997 248.312 493.644 248.312 493.293 248.312C492.16 246.431 490.402 245.201 488.017 244.622C477.226 241.517 466.322 238.881 455.307 236.714C454.559 235.761 453.504 235.409 452.141 235.659C452.141 234.605 452.141 233.551 452.141 232.496C453.052 226.217 453.404 219.891 453.197 213.517Z" fill="#784C4B"/>
<path opacity="0.998" fill-rule="evenodd" clip-rule="evenodd" d="M284.369 253.584C288.77 254.388 292.991 255.442 297.031 256.747C297.031 259.56 297.031 262.371 297.031 265.183C297.031 278.89 297.031 292.597 297.031 306.304C297.111 322.732 296.056 339.075 293.865 355.334C293.438 356.331 292.734 357.034 291.755 357.443C283.669 359.027 275.58 359.202 267.486 357.97C263.068 357.972 260.43 355.864 259.572 351.644C259.285 327.04 259.462 302.438 260.1 277.836C262.036 267.687 263.091 257.143 263.265 246.203C269.125 245.853 274.577 246.908 279.621 249.367C279.972 248.663 280.324 247.961 280.676 247.258C281.456 249.777 282.686 251.886 284.369 253.584Z" fill="#E4E4E5"/>
<path fill-rule="evenodd" clip-rule="evenodd" d="M287.534 252.53C295.747 254.169 303.837 255.927 311.803 257.802C306.864 257.624 301.94 257.272 297.031 256.747C292.991 255.442 288.77 254.388 284.369 253.584C283.059 250.46 283.059 247.297 284.369 244.094C284.812 247.38 285.867 250.192 287.534 252.53Z" fill="#5E6264"/>
<path fill-rule="evenodd" clip-rule="evenodd" d="M368.783 147.089C367.359 150.222 365.425 152.331 362.979 153.416C362.803 155.525 362.628 157.633 362.452 159.742C364.624 173.667 365.68 187.726 365.617 201.918C366.672 201.918 367.728 201.918 368.783 201.918C368.61 204.752 368.786 207.564 369.31 210.354C371.161 215.363 373.272 220.284 375.641 225.115C376.576 230.356 377.279 235.628 377.752 240.931C383.836 248.074 389.112 255.806 393.579 264.128C398.214 268.14 402.611 272.358 406.769 276.781C407.881 278.575 408.936 280.332 409.935 282.053C403.243 281.878 396.56 282.053 389.886 282.58C389.359 283.107 388.831 283.635 388.303 284.162C387.6 298.22 387.6 312.28 388.303 326.338C388.708 326.924 389.235 327.275 389.886 327.392C406.769 328.096 423.652 328.798 440.535 329.501C440.248 340.582 438.665 351.478 435.786 362.188C433.949 363.514 432.015 364.569 429.983 365.351C425.244 363.779 420.32 362.372 415.21 361.133C404.855 363.936 394.303 364.99 383.555 364.297C379.741 364.607 376.399 363.552 373.531 361.133C370.521 342.89 367.708 324.614 365.09 306.304C363.433 288.811 364.84 271.589 369.31 254.639C372.335 248.208 374.621 241.53 376.169 234.605C373.097 229.089 370.283 224.168 367.728 219.843C366.747 216.496 365.868 212.98 365.09 209.299C364.911 201.193 364.384 193.109 363.507 185.048C361.406 177.003 359.648 168.919 358.231 160.797C359.423 159.614 360.127 158.207 360.341 156.579C360.98 151.411 363.794 148.248 368.783 147.089Z" fill="#C7EFFB"/>
<path fill-rule="evenodd" clip-rule="evenodd" d="M309.693 239.877C309.774 241.195 310.478 242.073 311.803 242.513C315.029 242.783 318.195 243.31 321.3 244.095C322.28 245.348 322.632 246.754 322.355 248.312C322.14 251.494 321.789 254.658 321.3 257.802C318.134 257.802 314.969 257.802 311.803 257.802C303.837 255.927 295.747 254.169 287.534 252.53C286.618 250.192 286.266 247.732 286.479 245.149C292.524 244.845 298.504 245.197 304.417 246.203C306.688 244.451 308.446 242.342 309.693 239.877Z" fill="#F8F4C9"/>
<path fill-rule="evenodd" clip-rule="evenodd" d="M97.6034 248.312C101.824 252.881 106.045 257.451 110.266 262.02C109.46 263.989 108.405 265.747 107.1 267.292C106.527 267.228 106.176 266.877 106.045 266.237C106.749 265.183 107.451 264.128 108.155 263.074C106.544 261.289 105.137 259.355 103.934 257.275C93.3614 256.957 82.8097 256.43 72.2793 255.693C72.2793 254.288 72.2793 252.881 72.2793 251.475C79.6198 252.41 87.006 252.762 94.4379 252.53C96.2309 252.699 97.9895 252.524 99.7138 252.003C98.318 251.142 97.6146 249.912 97.6034 248.312Z" fill="#32405B"/>
<path fill-rule="evenodd" clip-rule="evenodd" d="M133.479 243.04C138.697 246.531 143.269 250.749 147.197 255.693C147.287 256.743 146.935 257.621 146.141 258.329C140.245 261.056 136.201 265.449 134.007 271.509C131.193 274.321 128.38 277.132 125.565 279.944C126.075 282.092 126.954 284.201 128.203 286.271C126.661 285.26 125.254 284.031 123.983 282.58C114.866 281.38 109.238 276.283 107.1 267.291C108.405 265.747 109.46 263.989 110.265 262.019C113.719 259.231 117.588 256.947 121.872 255.166C123.807 253.233 125.742 251.299 127.676 249.366C128.448 245.981 130.383 243.872 133.479 243.04Z" fill="#3A4678"/>
<path opacity="0.941" fill-rule="evenodd" clip-rule="evenodd" d="M156.693 248.312C158.668 253.102 161.834 256.969 166.19 259.911C166.285 262.707 165.582 265.167 164.079 267.292C164.079 266.588 163.728 266.237 163.024 266.237C164.051 264.584 164.227 262.826 163.552 260.965C160.905 257.769 158.267 254.606 155.638 251.475C153.919 249.687 154.27 248.633 156.693 248.312Z" fill="#656F77"/>
<path fill-rule="evenodd" clip-rule="evenodd" d="M324.466 247.258C324.282 250.815 323.754 254.33 322.883 257.802C321.359 259.547 319.424 260.25 317.079 259.911C315.174 259.358 313.416 258.655 311.803 257.802C314.969 257.802 318.135 257.802 321.3 257.802C321.789 254.658 322.14 251.494 322.355 248.312C323.189 247.143 323.716 245.737 323.938 244.094C324.448 245.094 324.623 246.148 324.466 247.258Z" fill="#57595D"/>
<path opacity="0.371" fill-rule="evenodd" clip-rule="evenodd" d="M527.059 255.693C530.549 257.083 534.066 258.488 537.61 259.911C538.331 259.528 539.035 259.177 539.721 258.856C543.083 261.614 546.6 264.074 550.272 266.237C542.963 263.568 535.577 261.107 528.114 258.856C527.47 257.917 527.119 256.862 527.059 255.693Z" fill="#716A72"/>
<path fill-rule="evenodd" clip-rule="evenodd" d="M107.1 356.916C107.1 355.861 107.1 354.807 107.1 353.753C107.848 346.996 106.618 340.669 103.407 334.773C102.07 323.011 100.136 311.413 97.6034 299.978C96.9829 322.457 96.807 344.95 97.0758 367.46C88.0029 368.149 79.034 368.852 70.1689 369.569C68.4103 369.569 66.6517 369.569 64.8931 369.569C65.2913 339.65 67.0499 309.775 70.1689 279.944C71.595 274.199 72.4743 268.223 72.8069 262.019C74.2137 260.614 75.6207 259.207 77.0275 257.802C78.2021 259.079 79.4331 259.079 80.7207 257.802C81.5129 258.725 82.0405 259.78 82.3034 260.965C89.3399 261.043 96.5502 260.867 103.934 260.438C104.601 262.921 104.601 265.206 103.934 267.291C105.298 269.576 106.177 272.036 106.572 274.672C106.924 274.321 107.276 273.969 107.628 273.618C110.452 280.483 115.553 284.348 122.928 285.216C123.973 287.138 125.38 288.72 127.148 289.961C125.87 291.135 125.87 292.365 127.148 293.651C124.272 295.618 121.106 296.672 117.652 296.815C117.652 298.22 117.652 299.627 117.652 301.032C121.23 299.378 124.747 298.675 128.203 298.924C128.035 297.132 128.21 295.374 128.731 293.651C129.168 294.133 129.695 294.486 130.314 294.706C132.892 293.066 135.706 292.363 138.755 292.597C139.808 288.164 141.216 287.813 142.976 291.543C140.781 295.106 140.43 298.796 141.921 302.614C141.05 319.23 140.523 335.926 140.338 352.698C138.931 354.104 137.524 354.104 136.117 352.698C136.13 334.055 135.954 315.427 135.59 296.815C133.796 298.405 132.038 299.986 130.314 301.56C130.851 302.792 131.73 303.67 132.952 304.196C134.223 321.394 134.751 338.616 134.534 355.861C137.747 355.646 140.738 355.646 143.503 355.861C144.234 355.308 144.761 354.604 145.086 353.753C144.09 349.6 143.386 345.383 142.976 341.1C143.585 331.575 144.287 322.086 145.086 312.631C144.382 309.116 143.68 305.601 142.976 302.087C144.077 300.903 144.78 299.497 145.086 297.869C144.269 293.688 143.918 289.471 144.031 285.216C145.438 285.216 146.845 285.216 148.252 285.216C149.6 302.426 149.6 319.648 148.252 336.882C148.863 347.089 149.565 357.281 150.362 367.46C141.883 367.314 133.441 366.612 125.038 365.351C120.513 365.854 116.116 365.854 111.848 365.351C111.497 366.054 111.144 366.757 110.793 367.46C109.867 363.715 108.636 360.199 107.1 356.916Z" fill="#C6F0FC"/>
<path fill-rule="evenodd" clip-rule="evenodd" d="M297.031 256.747C301.94 257.272 306.864 257.624 311.803 257.802C313.416 258.655 315.174 259.358 317.079 259.911C316.512 261.615 316.16 263.373 316.024 265.183C314.618 265.183 313.21 265.183 311.803 265.183C306.879 265.183 301.955 265.183 297.031 265.183C297.031 262.37 297.031 259.559 297.031 256.747Z" fill="#C9EEF7"/>
<path fill-rule="evenodd" clip-rule="evenodd" d="M155.638 251.475C158.267 254.606 160.905 257.769 163.552 260.965C164.227 262.826 164.051 264.584 163.024 266.237C153.531 274.591 143.507 282.324 132.952 289.434C131.218 288.575 129.635 287.52 128.203 286.271C126.954 284.201 126.075 282.092 125.566 279.944C128.38 277.132 131.193 274.321 134.007 271.509C136.201 265.449 140.245 261.056 146.141 258.329C146.935 257.621 147.287 256.743 147.197 255.693C148.71 253.595 150.645 251.837 153 250.421C153.361 252.655 154.24 253.007 155.638 251.475Z" fill="#E0E1E3"/>
<path opacity="0.663" fill-rule="evenodd" clip-rule="evenodd" d="M556.604 263.074C557.378 264.527 558.082 266.108 558.714 267.819C563 269.345 567.044 271.279 570.848 273.618C569.995 277.749 569.115 281.967 568.21 286.271C567.507 285.92 566.804 285.567 566.1 285.216C566.984 281.857 568.039 278.518 569.266 275.199C565.483 272.433 561.262 270.499 556.604 269.4C556.604 267.291 556.604 265.183 556.604 263.074Z" fill="#645D69"/>
<path fill-rule="evenodd" clip-rule="evenodd" d="M427.872 266.237C430.687 267.291 433.5 268.346 436.314 269.4C436.305 272.611 435.954 275.774 435.259 278.89C434.255 280.386 433.904 282.143 434.203 284.162C432.275 288.189 430.164 292.231 427.872 296.288C424.059 295.554 420.19 294.674 416.265 293.651C416.439 290.818 416.262 288.006 415.738 285.216C415.334 284.63 414.806 284.279 414.155 284.162C414.055 281.751 413.351 279.643 412.045 277.835C411.647 275.982 410.943 274.224 409.934 272.563C413.738 270.484 416.904 267.672 419.431 264.128C420.871 266.617 422.982 268.374 425.762 269.4C426.738 268.497 427.442 267.442 427.872 266.237Z" fill="#764748"/>
<path fill-rule="evenodd" clip-rule="evenodd" d="M331.852 272.563C333.964 275.552 336.602 278.012 339.766 279.944C340.197 282.259 339.669 284.368 338.183 286.271C334.758 284.359 331.768 281.898 329.214 278.89C326.393 275.046 327.272 272.937 331.852 272.563Z" fill="#DDB2A2"/>
<path opacity="0.573" fill-rule="evenodd" clip-rule="evenodd" d="M436.314 269.4C437.48 270.56 438.886 271.264 440.534 271.509C440.534 274.672 440.534 277.836 440.534 280.999C439.337 282.805 437.578 283.508 435.259 283.108C435.259 281.702 435.259 280.296 435.259 278.89C435.954 275.774 436.305 272.611 436.314 269.4Z" fill="#A6C3CE"/>
<path fill-rule="evenodd" clip-rule="evenodd" d="M446.865 255.693C445.919 260.586 445.743 265.505 446.338 270.455C447.602 273.477 449.889 275.41 453.197 276.254C476.649 281.784 500.214 282.312 523.893 277.836C523.893 279.593 523.893 281.35 523.893 283.108C515.916 285.013 507.826 286.067 499.624 286.271C498.377 311.08 496.619 335.858 494.348 360.606C494.524 362.891 494.7 365.175 494.876 367.46C495.227 367.109 495.58 366.757 495.931 366.406C496.176 367.71 496.703 368.764 497.514 369.569C496.656 370.784 495.601 370.784 494.348 369.569C493.247 358.468 491.84 347.573 490.128 336.882C489.323 334.086 489.851 331.275 491.71 328.447C493.669 314.304 495.954 300.245 498.569 286.271C483.962 286.51 469.541 285.104 455.307 282.053C453.62 281.771 452.213 282.123 451.086 283.108C448.679 283.554 446.92 282.85 445.81 280.999C445.782 275.146 445.078 269.523 443.7 264.128C444.444 261.119 445.499 258.307 446.865 255.693Z" fill="#79CBAE"/>
<path fill-rule="evenodd" clip-rule="evenodd" d="M311.803 265.183C313.21 265.183 314.618 265.183 316.024 265.183C317.079 265.183 318.134 265.183 319.19 265.183C319.19 267.995 319.19 270.806 319.19 273.618C319.623 278.719 320.327 283.64 321.3 288.38C322.998 310.49 324.053 332.633 324.466 354.807C327.612 355.295 330.778 355.646 333.962 355.861C339.483 356.61 345.11 357.313 350.845 357.97C349.74 361.577 349.74 365.443 350.845 369.569C339.238 369.569 327.631 369.569 316.024 369.569C313.906 348.42 311.268 327.332 308.11 306.304C307.242 327.051 306.187 347.787 304.945 368.514C292.896 369.556 280.761 369.907 268.541 369.569C268.728 365.631 268.377 361.765 267.486 357.97C275.58 359.202 283.669 359.027 291.755 357.443C292.734 357.034 293.438 356.331 293.866 355.334C296.056 339.075 297.111 322.732 297.031 306.304C298.081 293.136 298.433 279.78 298.086 266.237C302.868 266.572 307.441 266.221 311.803 265.183Z" fill="#292C4D"/>
<path fill-rule="evenodd" clip-rule="evenodd" d="M297.031 265.183C301.955 265.183 306.879 265.183 311.803 265.183C307.441 266.221 302.868 266.572 298.086 266.237C298.433 279.78 298.081 293.136 297.031 306.304C297.031 292.597 297.031 278.89 297.031 265.183Z" fill="#A3A9BB"/>
<path fill-rule="evenodd" clip-rule="evenodd" d="M455.307 282.053C469.541 285.104 483.962 286.51 498.569 286.271C495.954 300.245 493.669 314.304 491.71 328.447C489.851 331.275 489.324 334.086 490.128 336.882C488.6 347.732 486.489 358.452 483.797 369.042C473.329 370.542 462.777 371.069 452.141 370.623C450.791 369.114 449.032 368.411 446.865 368.514C447.472 355.87 447.825 343.217 447.921 330.556C451.411 331.11 453.697 329.705 454.779 326.338C455.131 322.472 455.483 318.606 455.834 314.74C457.837 310.62 459.069 306.228 459.528 301.56C458.73 299.355 457.498 297.422 455.834 295.76C455.308 291.204 455.132 286.636 455.307 282.053Z" fill="#8ADEC1"/>
<path fill-rule="evenodd" clip-rule="evenodd" d="M435.259 278.89C435.259 280.295 435.259 281.702 435.259 283.108C437.578 283.508 439.337 282.805 440.534 280.999C442.293 282.404 444.051 282.404 445.81 280.999C446.92 282.85 448.679 283.554 451.086 283.108C452.405 283.189 453.284 283.892 453.724 285.216C454.251 289.419 454.427 293.637 454.252 297.869C453.548 297.869 452.845 297.869 452.141 297.869C452.455 293.37 452.103 288.976 451.086 284.689C445.469 284.163 439.842 283.987 434.203 284.162C433.904 282.143 434.255 280.386 435.259 278.89Z" fill="#536B71"/>
<path fill-rule="evenodd" clip-rule="evenodd" d="M524.948 276.781C524.725 283.952 525.428 290.982 527.059 297.869C527.059 298.572 527.059 299.275 527.059 299.978C529.918 323.126 530.621 346.323 529.169 369.569C518.543 370.456 507.992 370.456 497.514 369.569C496.703 368.764 496.176 367.71 495.931 366.405C495.58 366.757 495.227 367.109 494.876 367.46C494.7 365.175 494.525 362.891 494.348 360.606C496.619 335.858 498.377 311.08 499.624 286.271C507.826 286.067 515.916 285.013 523.893 283.108C523.893 281.35 523.893 279.593 523.893 277.835C500.214 282.311 476.649 281.784 453.197 276.254C449.889 275.41 447.602 273.477 446.338 270.455C445.743 265.505 445.919 260.585 446.866 255.693C448.231 247.767 449.989 240.034 452.141 232.496C452.141 233.551 452.141 234.605 452.141 235.659C453.504 235.409 454.559 235.761 455.307 236.714C454.252 236.714 453.197 236.714 452.141 236.714C451.859 239.475 452.21 242.111 453.197 244.622C466.236 245.241 479.25 246.119 492.238 247.258C491.911 250.646 492.262 253.809 493.293 256.747C492.965 261.605 494.9 265.12 499.097 267.291C501.896 266.603 503.655 264.845 504.372 262.019C504.899 257.817 505.075 253.599 504.9 249.367C513.295 251.88 517.516 248.717 517.562 239.877C516.437 235.303 516.614 230.733 518.09 226.17C522.202 228.386 522.729 231.198 519.672 234.605C523.53 242.935 525.641 251.722 526.003 260.965C525.938 264.247 525.234 267.235 523.893 269.927C524.965 270.475 525.668 271.354 526.003 272.563C525.638 273.986 525.287 275.392 524.948 276.781Z" fill="#8ADEC1"/>
<path fill-rule="evenodd" clip-rule="evenodd" d="M494.348 248.312C497.12 248.936 499.934 249.288 502.79 249.367C502.965 253.949 502.789 258.518 502.262 263.074C500.24 265.745 498.13 265.745 495.931 263.074C494.638 258.239 494.111 253.319 494.348 248.312Z" fill="#8DD6C1"/>
<path fill-rule="evenodd" clip-rule="evenodd" d="M493.293 248.312C493.645 248.312 493.997 248.312 494.348 248.312C494.111 253.319 494.638 258.239 495.931 263.074C498.13 265.745 500.24 265.745 502.262 263.074C502.789 258.518 502.965 253.949 502.79 249.367C503.493 249.367 504.196 249.367 504.9 249.367C505.075 253.599 504.899 257.817 504.372 262.02C503.655 264.845 501.896 266.603 499.097 267.292C494.9 265.121 492.965 261.605 493.293 256.747C493.293 253.935 493.293 251.124 493.293 248.312Z" fill="#387266"/>
<path fill-rule="evenodd" clip-rule="evenodd" d="M455.307 236.714C466.322 238.88 477.226 241.516 488.017 244.622C490.402 245.201 492.16 246.431 493.293 248.312C493.293 251.124 493.293 253.935 493.293 256.747C492.262 253.809 491.911 250.645 492.238 247.258C479.25 246.119 466.236 245.241 453.197 244.622C452.21 242.111 451.859 239.475 452.141 236.714C453.197 236.714 454.252 236.714 455.307 236.714Z" fill="#7BC5A9"/>
<path fill-rule="evenodd" clip-rule="evenodd" d="M163.024 266.237C163.728 266.237 164.079 266.588 164.079 267.291C163.376 268.346 162.673 269.4 161.969 270.455C157.767 273.251 153.898 276.414 150.362 279.944C144.778 283.095 139.502 286.785 134.535 291.016C130.865 291.642 128.754 290.06 128.203 286.271C129.635 287.52 131.218 288.575 132.952 289.434C143.507 282.324 153.531 274.591 163.024 266.237Z" fill="#485366"/>
<path fill-rule="evenodd" clip-rule="evenodd" d="M528.114 258.856C535.577 261.107 542.963 263.568 550.272 266.237C550.923 266.354 551.451 266.705 551.855 267.291C552.206 270.104 552.559 272.915 552.91 275.727C553.347 276.209 553.875 276.561 554.493 276.781C556.256 274.662 556.96 272.202 556.603 269.4C561.262 270.499 565.483 272.433 569.265 275.199C568.039 278.518 566.984 281.857 566.1 285.216C565.449 285.333 564.921 285.684 564.517 286.271C563.311 289.726 562.431 293.24 561.879 296.815C560.391 300.924 559.336 305.141 558.714 309.468C548.012 306.02 537.46 302.154 527.059 297.869C525.428 290.982 524.724 283.952 524.948 276.781C526.355 276.781 527.762 276.781 529.169 276.781C528.857 272.518 528.153 268.3 527.059 264.128C527.066 262.158 527.417 260.4 528.114 258.856Z" fill="#DFE0E1"/>
<path fill-rule="evenodd" clip-rule="evenodd" d="M78.6103 139.708C78.9374 141.014 79.465 141.014 80.193 139.708C80.7101 141.072 80.886 142.478 80.7206 143.926C85.1692 143.89 89.0382 145.296 92.3275 148.144C88.2109 148.521 83.9902 148.521 79.6654 148.144C79.6654 146.738 79.6654 145.332 79.6654 143.926C77.8725 143.757 76.1138 143.932 74.3896 144.453C75.2423 144.778 75.9456 145.305 76.4999 146.035C75.4447 146.913 74.3896 147.793 73.3344 148.671C75.5257 148.873 77.636 149.401 79.6654 150.253C77.4028 152.987 75.1166 152.987 72.8068 150.253C69.5864 153.834 67.8279 158.052 67.531 162.905C67.1793 162.554 66.8275 162.202 66.4758 161.851C64.671 164.933 64.4952 168.096 65.9482 171.341C65.3169 172.706 64.7893 174.112 64.3654 175.558C64.0137 174.855 63.6619 174.153 63.3103 173.449C62.5205 175.381 61.4653 177.139 60.1447 178.721C58.3867 191.731 56.804 204.735 55.3965 217.734C54.8552 224.402 55.5586 231.08 57.5068 237.768C57.2567 240.471 56.7292 240.471 55.9241 237.768C55.7482 239.526 55.5724 241.282 55.3965 243.04C55.775 248.884 56.8301 253.101 58.562 255.693C56.1855 256.571 53.8993 256.571 51.7034 255.693C51.1826 257.416 51.0067 259.174 51.1758 260.965C56.5232 260.388 61.799 261.09 67.0034 263.074C67.6887 260.989 67.6887 259.057 67.0034 257.275C67.4311 256.278 68.1345 255.575 69.1137 255.166C67.9045 254.486 66.8493 253.607 65.9482 252.53C64.7184 242.356 64.5426 232.163 65.4206 221.952C68.0354 203.036 70.1458 184.057 71.7516 165.014C72.4551 183.993 72.4551 202.973 71.7516 221.952C69.892 231.421 69.7161 240.91 71.2241 250.421C79.133 250.923 86.871 251.625 94.4378 252.53C87.006 252.762 79.6197 252.41 72.2792 251.475C72.2792 252.881 72.2792 254.287 72.2792 255.693C82.8096 256.43 93.3614 256.957 103.934 257.275C105.137 259.355 106.544 261.289 108.155 263.074C107.451 264.128 106.749 265.183 106.045 266.237C106.176 266.877 106.527 267.228 107.1 267.291C109.238 276.283 114.866 281.38 123.983 282.58C125.254 284.031 126.661 285.261 128.203 286.271C128.754 290.06 130.865 291.642 134.534 291.015C139.502 286.785 144.778 283.095 150.362 279.944C150.105 309.832 150.456 339.707 151.417 369.569C137.349 369.569 123.279 369.569 109.21 369.569C108.506 365.351 107.804 361.133 107.1 356.916C108.636 360.199 109.867 363.715 110.793 367.46C111.144 366.757 111.497 366.054 111.848 365.351C116.116 365.854 120.513 365.854 125.038 365.351C133.441 366.612 141.883 367.314 150.362 367.46C149.565 357.281 148.863 347.089 148.252 336.882C149.6 319.648 149.6 302.426 148.252 285.216C146.845 285.216 145.437 285.216 144.031 285.216C143.918 289.471 144.269 293.688 145.086 297.869C144.78 299.497 144.077 300.903 142.976 302.087C143.68 305.601 144.382 309.116 145.086 312.631C144.287 322.086 143.585 331.575 142.976 341.1C143.386 345.383 144.09 349.6 145.086 353.753C144.761 354.604 144.234 355.308 143.503 355.861C140.738 355.646 137.747 355.646 134.534 355.861C134.751 338.616 134.223 321.394 132.952 304.196C131.73 303.67 130.851 302.792 130.314 301.56C132.038 299.986 133.796 298.405 135.59 296.815C135.954 315.427 136.13 334.055 136.117 352.698C137.524 354.104 138.931 354.104 140.338 352.698C140.523 335.926 141.05 319.23 141.921 302.614C140.43 298.796 140.781 295.106 142.976 291.543C141.216 287.813 139.808 288.164 138.755 292.597C135.706 292.363 132.891 293.066 130.314 294.706C129.695 294.486 129.168 294.133 128.731 293.652C128.21 295.374 128.035 297.132 128.203 298.924C124.747 298.675 121.23 299.378 117.652 301.032C117.652 299.627 117.652 298.22 117.652 296.815C121.106 296.672 124.272 295.618 127.148 293.652C125.87 292.365 125.87 291.135 127.148 289.961C125.38 288.72 123.973 287.138 122.928 285.216C115.553 284.348 110.452 280.483 107.628 273.618C107.276 273.969 106.924 274.321 106.572 274.672C106.177 272.036 105.298 269.576 103.934 267.291C104.601 265.206 104.601 262.921 103.934 260.438C96.5502 260.867 89.3399 261.043 82.3034 260.965C82.0404 259.78 81.5128 258.725 80.7206 257.802C79.4331 259.079 78.202 259.079 77.0275 257.802C75.6206 259.207 74.2137 260.614 72.8068 262.019C72.4742 268.223 71.5949 274.199 70.1689 279.944C70.5074 273.25 70.6833 266.572 70.6965 259.911C69.7064 262.007 68.827 264.116 68.0585 266.237C61.9036 265.081 55.9243 263.675 50.1206 262.019C51.3802 230.103 55.0733 198.47 61.1999 167.123C62.8283 160.132 65.2903 153.455 68.5861 147.089C71.1799 143.619 74.5214 141.159 78.6103 139.708Z" fill="#C5EBF7"/>
<path fill-rule="evenodd" clip-rule="evenodd" d="M566.1 285.216C566.804 285.567 567.507 285.92 568.21 286.271C569.369 287.432 569.545 288.837 568.738 290.488C568.187 293.421 566.956 295.882 565.045 297.869C564.105 297.226 563.05 296.875 561.879 296.815C562.431 293.24 563.311 289.726 564.517 286.271C564.921 285.684 565.449 285.333 566.1 285.216Z" fill="#31305C"/>
<path fill-rule="evenodd" clip-rule="evenodd" d="M244.272 336.882C243.373 348.063 241.966 359.134 240.052 370.096C228.59 369.598 216.984 369.423 205.231 369.569C203.916 361.521 202.861 353.437 202.066 345.317C202.748 344.501 203.1 343.447 203.121 342.154C200.847 326.287 198.385 310.471 195.734 294.706C203.443 295.778 211.181 295.953 218.948 295.233C227.88 293.747 236.673 291.815 245.328 289.434C245.451 305.264 245.1 321.08 244.272 336.882Z" fill="#8ADEC1"/>
<path fill-rule="evenodd" clip-rule="evenodd" d="M163.024 284.162C172.641 289.943 183.193 293.457 194.679 294.706C194.137 303.655 193.786 312.617 193.624 321.593C193.871 334.688 194.575 347.517 195.735 360.079C195.769 363.596 195.066 366.936 193.624 370.096C184.072 370.988 174.575 370.637 165.135 369.041C163.072 358.399 161.665 347.679 160.914 336.882C161.861 319.484 162.565 301.911 163.024 284.162Z" fill="#8ADEC1"/>
<path fill-rule="evenodd" clip-rule="evenodd" d="M412.045 277.835C413.351 279.643 414.055 281.752 414.155 284.162C406.15 283.831 398.236 284.182 390.414 285.216C389.71 298.572 389.71 311.927 390.414 325.284C390.818 325.87 391.346 326.221 391.997 326.338C391.636 327.222 390.933 327.574 389.886 327.392C389.235 327.275 388.708 326.924 388.303 326.338C387.6 312.28 387.6 298.22 388.303 284.162C388.831 283.635 389.359 283.107 389.886 282.58C396.56 282.053 403.243 281.878 409.935 282.053C411.703 281.333 412.407 279.926 412.045 277.835Z" fill="#616D84"/>
<path fill-rule="evenodd" clip-rule="evenodd" d="M414.155 284.162C414.806 284.279 415.334 284.63 415.738 285.216C416.262 288.006 416.439 290.818 416.266 293.652C420.19 294.674 424.059 295.554 427.872 296.288C430.164 292.231 432.275 288.189 434.203 284.162C439.842 283.987 445.47 284.163 451.086 284.689C452.103 288.976 452.455 293.37 452.141 297.869C451.393 298.822 450.338 299.174 448.976 298.924C448.976 303.141 448.976 307.359 448.976 311.577C450.031 311.577 451.086 311.577 452.141 311.577C452.458 316.426 452.107 321.171 451.086 325.811C431.393 326.338 411.697 326.514 391.997 326.338C391.346 326.221 390.818 325.87 390.414 325.284C389.71 311.928 389.71 298.573 390.414 285.216C398.236 284.182 406.15 283.831 414.155 284.162Z" fill="#E3E3E4"/>
<path fill-rule="evenodd" clip-rule="evenodd" d="M50.1206 262.02C55.9242 263.675 61.9036 265.082 68.0585 266.237C68.1753 266.888 68.527 267.415 69.1137 267.819C65.0722 276.772 62.0825 286.086 60.1447 295.76C54.2005 299.291 48.0454 299.643 41.6792 296.815C40.7752 295.512 40.0717 294.106 39.5688 292.597C41.1195 289.636 41.9988 286.473 42.2068 283.108C43.9654 280.648 45.724 278.187 47.4826 275.727C47.8406 273.053 48.3681 270.417 49.0654 267.819C47.6658 265.534 48.0176 263.601 50.1206 262.02Z" fill="#364072"/>
<path fill-rule="evenodd" clip-rule="evenodd" d="M452.141 297.869C452.845 297.869 453.548 297.869 454.252 297.869C455.507 300.034 456.211 302.495 456.362 305.25C456.321 307.835 455.617 309.944 454.252 311.576C453.548 311.576 452.845 311.576 452.141 311.576C451.086 311.576 450.031 311.576 448.976 311.576C448.976 307.359 448.976 303.141 448.976 298.924C450.338 299.173 451.393 298.822 452.141 297.869Z" fill="#30385B"/>
<path fill-rule="evenodd" clip-rule="evenodd" d="M163.024 282.053C173.028 285.285 183.229 287.921 193.624 289.961C212.115 291.341 230.053 289.058 247.438 283.108C247.996 301.289 246.941 319.214 244.272 336.882C245.1 321.08 245.451 305.264 245.328 289.434C236.673 291.815 227.88 293.748 218.948 295.233C211.181 295.953 203.443 295.778 195.735 294.706C198.385 310.472 200.847 326.288 203.121 342.154C203.1 343.447 202.748 344.501 202.066 345.317C201.7 342.993 200.997 342.816 199.955 344.79C198.732 350.072 197.325 355.168 195.735 360.079C194.575 347.517 193.871 334.688 193.624 321.593C193.786 312.617 194.137 303.655 194.679 294.706C183.193 293.458 172.641 289.943 163.024 284.162C163.024 283.459 163.024 282.757 163.024 282.053Z" fill="#79CCAE"/>
<path opacity="0.176" fill-rule="evenodd" clip-rule="evenodd" d="M561.879 296.815C563.049 296.875 564.105 297.226 565.045 297.869C563.064 302.568 560.778 307.137 558.186 311.576C547.845 307.55 537.47 303.683 527.059 299.978C527.059 299.275 527.059 298.572 527.059 297.869C537.46 302.154 548.012 306.02 558.714 309.468C559.336 305.141 560.391 300.924 561.879 296.815Z" fill="#63616D"/>
<path opacity="0.218" fill-rule="evenodd" clip-rule="evenodd" d="M163.024 273.618C163.024 276.43 163.024 279.241 163.024 282.053C163.024 282.756 163.024 283.459 163.024 284.162C162.565 301.911 161.861 319.484 160.914 336.882C160.54 315.591 161.243 294.503 163.024 273.618Z" fill="#92C5B4"/>
<path opacity="0.997" fill-rule="evenodd" clip-rule="evenodd" d="M107.1 353.753C106.037 350.777 105.158 347.614 104.462 344.263C103.158 352.617 102.455 361.052 102.352 369.569C101.915 370.051 101.387 370.403 100.769 370.623C90.625 369.596 80.4251 369.244 70.1689 369.569C79.034 368.852 88.0029 368.149 97.0758 367.46C96.807 344.95 96.9829 322.457 97.6034 299.978C100.136 311.413 102.07 323.011 103.407 334.773C106.618 340.67 107.848 346.996 107.1 353.753Z" fill="#B7E3F0"/>
<path fill-rule="evenodd" clip-rule="evenodd" d="M452.141 311.576C452.845 311.576 453.548 311.576 454.252 311.576C454.427 316.159 454.251 320.728 453.724 325.284C450.915 326.613 448.277 328.019 445.81 329.501C444.051 328.096 442.293 328.096 440.535 329.501C423.652 328.798 406.769 328.096 389.886 327.392C390.933 327.574 391.636 327.222 391.997 326.338C411.697 326.514 431.392 326.338 451.086 325.811C452.107 321.17 452.458 316.426 452.141 311.576Z" fill="#718190"/>
<path opacity="0.776" fill-rule="evenodd" clip-rule="evenodd" d="M451.086 283.108C452.213 282.123 453.62 281.771 455.307 282.053C455.132 286.636 455.308 291.204 455.834 295.76C457.498 297.422 458.73 299.355 459.528 301.56C459.069 306.227 457.837 310.62 455.834 314.74C455.483 318.606 455.131 322.472 454.779 326.338C453.697 329.705 451.411 331.11 447.921 330.556C447.825 343.217 447.472 355.87 446.865 368.514C449.032 368.411 450.791 369.114 452.141 370.623C444.3 371.403 442.014 368.24 445.283 361.133C445.81 350.596 445.985 340.052 445.81 329.501C448.277 328.019 450.915 326.613 453.724 325.284C454.251 320.728 454.427 316.159 454.252 311.576C455.617 309.944 456.321 307.835 456.362 305.25C456.211 302.495 455.507 300.034 454.252 297.869C454.427 293.637 454.251 289.419 453.724 285.216C453.284 283.892 452.405 283.189 451.086 283.108Z" fill="#8CC9BB"/>
<path fill-rule="evenodd" clip-rule="evenodd" d="M333.962 355.861C339.589 355.861 345.218 355.861 350.845 355.861C350.845 356.565 350.845 357.267 350.845 357.97C345.11 357.313 339.483 356.61 333.962 355.861Z" fill="#9B9BAC"/>
<path fill-rule="evenodd" clip-rule="evenodd" d="M429.983 365.351C429.942 366.493 429.589 367.547 428.928 368.514C423.422 369.241 417.971 369.944 412.572 370.623C402.988 369.584 393.317 369.233 383.555 369.569C383.555 367.811 383.555 366.054 383.555 364.297C394.303 364.99 404.855 363.936 415.21 361.133C420.319 362.372 425.244 363.779 429.983 365.351Z" fill="#2E355D"/>
</svg>
