<svg width="1217" height="164" viewBox="0 0 1217 164" fill="none" xmlns="http://www.w3.org/2000/svg">
<path d="M0.0849147 0V74V93C0.0861147 95.665 -0.440055 99.234 1.11269 101.582C3.051 104.512 7.99442 105.584 11.0849 106.797C20.4853 110.488 30.2762 113.476 40.0849 115.87C80.7657 125.8 124.31 128.79 166.085 126.961C340.479 119.324 506.986 34.117 683.085 51.1698C779.3 60.4869 864.776 109.542 955.085 139.645C1006.52 156.79 1060.81 167.067 1115.08 163.089C1133.48 161.74 1151.44 158.462 1169.08 152.975C1180.59 149.394 1191.35 144.157 1202.08 138.752C1206.09 136.732 1212.53 134.383 1215.05 130.471C1216.86 127.677 1216.08 123.162 1216.08 120V95V0H0.0849147Z" fill="#3E54AF"/>
</svg>
